<?xml version="1.0" encoding="UTF-8"?>
<svg version="1.1" xmlns="http://www.w3.org/2000/svg" width="594" height="593">
<path d="M0 0 C196.02 0 392.04 0 594 0 C594 195.69 594 391.38 594 593 C397.98 593 201.96 593 0 593 C0 397.31 0 201.62 0 0 Z " fill="#0F0F0F" transform="translate(0,0)"/>
<path d="M0 0 C0.73343628 0.00215515 1.46687256 0.0043103 2.22253418 0.00653076 C13.06255005 0.05768802 23.34799434 0.52483469 33.875 3.3125 C34.67728027 3.51117676 35.47956055 3.70985352 36.30615234 3.91455078 C64.35636469 10.91530484 86.73563356 23.7190396 107.875 43.3125 C108.46796875 43.83972656 109.0609375 44.36695313 109.671875 44.91015625 C128.64720902 62.57528863 140.12573521 88.75711799 146.875 113.3125 C147.38933594 115.14941406 147.38933594 115.14941406 147.9140625 117.0234375 C156.68942598 154.83131193 145.80433351 193.91496913 126.14501953 226.29736328 C122.02037767 232.84192189 117.46189967 239.08752579 112.875 245.3125 C112.38628418 245.97749512 111.89756836 246.64249023 111.39404297 247.32763672 C103.93459203 257.44565492 96.2067096 267.35453785 88.47216797 277.26269531 C83.56263741 283.56358473 78.70902137 289.90780071 73.86328125 296.2578125 C67.58213073 304.48732723 61.266234 312.68772068 54.90209961 320.85327148 C51.48077999 325.24390918 48.07411913 329.64505229 44.6875 334.0625 C40.89698163 339.00128615 37.05907383 343.89990442 33.20166016 348.78637695 C28.89044541 354.26215006 24.66597162 359.80311662 20.46557617 365.36425781 C11.41095892 377.28852739 11.41095892 377.28852739 6.875 380.3125 C2.92884292 380.7509619 0.72723814 380.89546858 -2.59765625 378.62109375 C-5.20037079 376.2436528 -7.1335489 373.86128448 -9.1875 371 C-12.7054894 366.19636663 -16.32347138 361.50841618 -20.0625 356.875 C-24.59394283 351.24612617 -29.0386454 345.56363551 -33.4296875 339.82421875 C-36.63753504 335.63504711 -39.8824924 331.47486175 -43.125 327.3125 C-49.60744919 318.98712096 -56.04574241 310.62913239 -62.46875 302.2578125 C-67.25111535 296.03142125 -72.05418226 289.82167646 -76.875 283.625 C-77.46764648 282.8628418 -78.06029297 282.10068359 -78.67089844 281.31542969 C-81.65399126 277.48094258 -84.64222977 273.65066015 -87.640625 269.828125 C-107.0164956 245.09372112 -126.48282735 220.12645368 -136.625 190 C-136.93896729 189.0713916 -137.25293457 188.1427832 -137.57641602 187.18603516 C-141.96749264 173.41090942 -143.68417949 160.01385499 -143.5625 145.625 C-143.56045563 144.89047607 -143.55841125 144.15595215 -143.55630493 143.39916992 C-143.38123072 104.59052661 -127.86427125 70.06924733 -101.125 42.3125 C-100.17947266 41.27222656 -100.17947266 41.27222656 -99.21484375 40.2109375 C-86.18789316 26.29643643 -68.29501952 14.97967651 -50.125 9.3125 C-48.6874305 8.81269985 -47.24992895 8.31270421 -45.8125 7.8125 C-30.38416695 2.76172192 -16.24204664 -0.0856677 0 0 Z " fill="#09C0C7" transform="translate(297.125,38.6875)"/>
<path d="M0 0 C5.4150393 3.33380376 8.1707295 7.34817214 9.875 13.4375 C10.10566162 14.18829834 10.33632324 14.93909668 10.57397461 15.71264648 C11.40992564 18.4676503 12.2048163 21.23295478 13 24 C13.53966824 25.8368181 14.07939244 27.67362008 14.62036133 29.51005554 C17.11821926 37.99583254 19.56125491 46.49709111 22 55 C23.6331522 60.67714812 25.29145473 66.3449558 27 72 C27.20044922 72.67998047 27.40089844 73.35996094 27.60742188 74.06054688 C28.22169595 76.12917702 28.85784442 78.18987647 29.5 80.25 C29.8609375 81.43078125 30.221875 82.6115625 30.59375 83.828125 C32.21138453 87.47678956 33.89412518 89.50694353 37 92 C39.19679507 92.59446973 39.19679507 92.59446973 41.3125 92.3125 C42.529375 92.209375 43.74625 92.10625 45 92 C48.23332815 84.78890045 51.17419965 77.67692056 53.5 70.125 C55.83751212 62.87871242 58.57903218 57.28064522 65 53 C69.98794503 52.19685631 73.83482996 52.29175939 78.1875 54.9375 C80.36301263 58.61336616 80.42149115 60.28258897 79.7109375 64.3984375 C78.92992162 67.25644067 77.88392888 69.88768124 76.75 72.625 C71.27112202 86.17968079 68.99914853 101.18461275 67.07568359 115.62158203 C65.92864622 123.78796924 63.00416371 131.22545734 59.875 138.8125 C54.48080416 151.90329235 55.10666993 162.5108025 60.125 175.75 C60.79624549 177.60363199 61.46737293 179.45730886 62.13531494 181.31213379 C62.61890107 182.65216394 63.10509056 183.99125705 63.59368896 185.32946777 C66.72251924 193.91274761 69.62790211 202.57260631 72.55950928 211.22473145 C74.06665077 215.67211437 75.57864102 220.11782581 77.09375 224.5625 C77.35795746 225.34151672 77.62216492 226.12053345 77.89437866 226.92315674 C78.91621596 229.91996566 79.94138583 232.86223248 81.18164062 235.77734375 C82 238 82 238 82 242 C146.02 241.67 210.04 241.34 276 241 C282.49632191 223.07546722 282.49632191 223.07546722 288.62109375 205.0703125 C290.11449148 200.58895169 291.7379353 196.15513633 293.34985352 191.71533203 C295.24947238 186.48267945 297.12838724 181.2427263 299 176 C299.26296875 175.26845703 299.5259375 174.53691406 299.796875 173.78320312 C304.91913851 159.35450154 303.08825321 147.85837194 297.5625 133.9375 C294.28989032 125.359067 292.35727313 117.09178173 291 108 C288.24825378 88.54259899 288.24825378 88.54259899 281.75 70.125 C279.6690993 65.75676004 279.09190781 61.7794326 280 57 C281.4375 54.4375 281.4375 54.4375 284 53 C288.69058311 52.15444897 292.05404117 52.51809644 296.3125 54.6875 C300.90683271 58.64076303 303.46815843 62.5127329 305.5625 68.1875 C306.19478516 69.89679688 306.19478516 69.89679688 306.83984375 71.640625 C308.11936556 75.34563764 309.23598422 79.07594475 310.3125 82.84375 C311.23350858 85.73236782 312.56924588 88.3335946 314 91 C314.33 91.99 314.66 92.98 315 94 C320.47865364 92.81832961 323.45539161 91.59841089 327 87 C330.17457618 81.04137091 331.82761893 74.36126243 333.7421875 67.91796875 C334.27754976 66.12474448 334.81295135 64.33153194 335.34838867 62.53833008 C335.6217807 61.6211319 335.89517273 60.70393372 336.17684937 59.75894165 C337.48118722 55.38721202 338.79357504 51.0179044 340.10546875 46.6484375 C340.61918262 44.93621052 341.1328545 43.22397093 341.64648438 41.51171875 C342.68554688 38.04817708 343.72460938 34.58463542 344.76367188 31.12109375 C345.01883575 30.27030243 345.27399963 29.41951111 345.53689575 28.54293823 C346.0336429 26.88760229 346.53092075 25.23242549 347.02877808 23.5774231 C348.01821805 20.2866044 349.00146067 16.99496829 349.95947266 13.69482422 C350.21647949 12.81068848 350.47348633 11.92655273 350.73828125 11.015625 C350.94106689 10.30438477 351.14385254 9.59314453 351.3527832 8.86035156 C352.64956975 5.13288515 353.83543719 3.50527889 357 1 C361.41451807 0.02933789 365.79416593 -0.26115138 369.82421875 2.04296875 C372.42502455 4.70339187 373.3209592 7.46842174 373.5 11.0625 C372.97584663 19.54811802 370.505328 27.69432075 367.75 35.6875 C365.25826518 42.94172493 363.19319767 50.28501249 361.1875 57.6875 C360.87329102 58.83500732 360.55908203 59.98251465 360.23535156 61.16479492 C359.94499023 62.24865479 359.65462891 63.33251465 359.35546875 64.44921875 C359.09403076 65.42205811 358.83259277 66.39489746 358.56323242 67.3972168 C357.85899943 70.20774743 357.85899943 70.20774743 358 74 C359.65 74 361.3 74 363 74 C363.19883789 73.47100098 363.39767578 72.94200195 363.60253906 72.39697266 C366.6111309 64.62772668 370.136442 57.12431116 373.69824219 49.59814453 C374.73734406 47.40175138 375.77137187 45.2030265 376.8046875 43.00390625 C378.85035438 38.65987247 380.91708655 34.32629304 383 30 C383.36085693 29.25028931 383.72171387 28.50057861 384.09350586 27.72814941 C385.16376074 25.51529944 386.24400064 23.30764562 387.328125 21.1015625 C387.65262634 20.43071625 387.97712769 19.75987 388.3114624 19.06869507 C391.23921001 13.16516485 391.23921001 13.16516485 394 11 C396.99296454 10.04795223 399.86927204 9.80799624 403 10 C408.39759036 12.79518072 408.39759036 12.79518072 410 16 C410.65380206 23.65023562 408.90828572 28.56393621 405.5625 35.375 C404.85432129 36.87293091 404.85432129 36.87293091 404.13183594 38.40112305 C401.35373972 44.24309003 398.48960962 50.042801 395.63096619 55.84564209 C394.45095904 58.24255874 393.27403208 60.6409699 392.09741211 63.03955078 C390.54560934 66.20254157 388.97808577 69.35705679 387.40063477 72.50732422 C386.67818041 73.96954491 385.95607735 75.43193925 385.234375 76.89453125 C384.89222458 77.56850449 384.55007416 78.24247772 384.19755554 78.93687439 C382.18738696 82.81204932 382.18738696 82.81204932 383 87 C386.56038062 86.44424496 387.86138934 85.38798301 389.99609375 82.52734375 C390.54837646 81.80015137 391.10065918 81.07295898 391.66967773 80.32373047 C392.25305908 79.53627441 392.83644043 78.74881836 393.4375 77.9375 C394.68599405 76.29182517 395.93602836 74.64731788 397.1875 73.00390625 C397.82042969 72.16875488 398.45335937 71.33360352 399.10546875 70.47314453 C403.48454033 64.75665032 408.06969105 59.20811702 412.65771484 53.65917969 C413.82803248 52.21256662 414.94448109 50.72270177 416.05078125 49.2265625 C419.7929949 44.32297221 419.7929949 44.32297221 423.27734375 43.390625 C426.97094517 43.17511503 429.32784809 43.62293917 432.5625 45.4375 C434.79154943 49.4110229 434.99757933 52.56178994 434 57 C430.80444807 63.62280551 426.08812397 69.27247552 421.4453125 74.92578125 C418.12489677 79.10016971 414.97061282 83.38960788 411.8125 87.6875 C411.21816162 88.49574219 410.62382324 89.30398438 410.01147461 90.13671875 C408.86986475 91.6932122 407.73155514 93.25213282 406.59692383 94.8137207 C405.56226115 96.23023259 404.51587241 97.638283 403.45581055 99.03588867 C400.62905232 102.57621731 400.62905232 102.57621731 400.1875 106.9375 C400.77745088 109.13307 400.77745088 109.13307 402.68359375 109.7734375 C405.18390843 110.27844738 405.18390843 110.27844738 407.41015625 108.2265625 C408.28542969 107.36804688 409.16070313 106.50953125 410.0625 105.625 C411.03417782 104.69422799 412.00820136 103.76589954 412.984375 102.83984375 C413.48130859 102.36530762 413.97824219 101.89077148 414.49023438 101.40185547 C417.70018508 98.42133526 421.14588409 95.72155024 424.5625 92.984375 C426.55547546 91.36188856 428.42997068 89.68276156 430.3125 87.9375 C433 86 433 86 436.0625 85.3125 C440.3677543 86.32011271 441.68409957 88.3218052 444 92 C444.71407259 95.80838717 444.33484701 97.42014298 442.3984375 100.7734375 C439.76903219 104.56763605 436.47218426 107.5422658 433.0625 110.625 C432.40443359 111.22965088 431.74636719 111.83430176 431.06835938 112.45727539 C429.05040897 114.31021328 427.02542024 116.15523474 425 118 C423.21328808 119.63817181 421.42887967 121.27878478 419.64624023 122.92138672 C418.59170024 123.89257066 417.53538217 124.8618296 416.47680664 125.82861328 C414.97357127 127.2078423 413.48415272 128.60026306 412 130 C411.44223877 130.52134521 410.88447754 131.04269043 410.30981445 131.57983398 C405.66185267 136.05490837 401.92403249 140.94135345 398.1875 146.1875 C383.96066468 165.78959003 383.96066468 165.78959003 374.75 173.49609375 C366.50892472 180.57826782 364.56535453 190.08075722 362.1875 200.25 C361.80827393 201.84896118 361.80827393 201.84896118 361.42138672 203.48022461 C358.41688794 216.27664962 355.69626254 229.1356777 353 242 C353.59833145 241.98889694 354.1966629 241.97779388 354.81312561 241.96635437 C361.0587771 241.85545896 367.30414746 241.78020784 373.55053711 241.7253418 C375.87942878 241.70024773 378.20824207 241.66616477 380.53686523 241.62280273 C383.89065928 241.56192883 387.2434092 241.53373822 390.59765625 241.51171875 C391.63334244 241.48591232 392.66902863 241.4601059 393.73609924 241.43351746 C400.50029199 241.43091209 404.00473514 242.33554738 409 247 C411 251 411 251 411 269 C258.54 269 106.08 269 -51 269 C-51 249.6599511 -51 249.6599511 -46.12774658 243.71588135 C-43.52291498 241.61526373 -42.26792414 241.51244521 -38.95605469 241.54589844 C-37.95531921 241.54620056 -36.95458374 241.54650269 -35.92352295 241.54681396 C-34.85047913 241.56745911 -33.7774353 241.58810425 -32.671875 241.609375 C-31.01566132 241.61786469 -31.01566132 241.61786469 -29.32598877 241.62652588 C-25.80021774 241.64891232 -22.27546376 241.69911504 -18.75 241.75 C-16.35938968 241.77006197 -13.96876342 241.78831326 -11.578125 241.8046875 C-5.71840313 241.84878457 0.14072578 241.91572002 6 242 C3.91819488 226.75215469 3.91819488 226.75215469 0.5625 211.75 C0.12715075 210.09386913 -0.30773846 208.43761725 -0.7421875 206.78125 C-0.95456055 205.98332031 -1.16693359 205.18539062 -1.38574219 204.36328125 C-1.98133398 202.0718152 -2.53419003 199.77478336 -3.0703125 197.46875 C-6.34229727 183.42521909 -10.46606078 175.94352808 -22.4296875 167.23046875 C-25.9001651 164.21885369 -28.45735245 160.74105755 -31.1875 157.0625 C-32.33981495 155.53513452 -33.492159 154.007791 -34.64453125 152.48046875 C-35.76350273 150.98734019 -36.88201526 149.49386753 -38 148 C-44.90465667 138.78994878 -51.89050992 130.61127815 -60.62109375 123.09375 C-64.26208149 119.8892025 -67.80201324 116.57601083 -71.34423828 113.26293945 C-73.75599346 111.01884052 -76.15378542 108.87902797 -78.74609375 106.83984375 C-81.85463426 104.30236961 -83.69492145 101.80008165 -85 98 C-85.31724846 93.9588589 -84.60693854 90.86705506 -82.25 87.5 C-79.46880022 85.64586681 -78.29590887 85.59042068 -75 86 C-72.5625 87.58203125 -72.5625 87.58203125 -70 89.8125 C-69.04996094 90.62589844 -68.09992188 91.43929687 -67.12109375 92.27734375 C-66.36675049 92.93645752 -66.36675049 92.93645752 -65.59716797 93.60888672 C-63.34576511 95.56983039 -61.0644066 97.49453782 -58.78320312 99.4206543 C-57.65851945 100.37124179 -56.53602354 101.32442541 -55.41601562 102.28051758 C-51.35014681 105.82884051 -51.35014681 105.82884051 -47 109 C-44.3015411 108.77802187 -44.3015411 108.77802187 -42 108 C-41.15870684 105.74018536 -41.15870684 105.74018536 -41 103 C-42.43656568 100.53475112 -42.43656568 100.53475112 -44.6875 98.1875 C-45.51894531 97.22714844 -46.35039063 96.26679688 -47.20703125 95.27734375 C-47.66029785 94.75382324 -48.11356445 94.23030273 -48.58056641 93.69091797 C-51.1401617 90.64176816 -53.5009244 87.44432989 -55.875 84.25 C-56.37660645 83.57622314 -56.87821289 82.90244629 -57.39501953 82.20825195 C-58.41770634 80.83211023 -59.43918638 79.45507088 -60.45947266 78.07714844 C-62.00200033 75.99730288 -63.55322524 73.92416316 -65.10546875 71.8515625 C-66.09155177 70.52634363 -67.07724418 69.20083399 -68.0625 67.875 C-68.51544434 67.27204102 -68.96838867 66.66908203 -69.43505859 66.04785156 C-72.65513339 61.6884784 -75.59279489 57.44323066 -76.5 52 C-75.79369678 47.76218068 -74.14379484 45.87042137 -71 43 C-68.1875 42.25 -68.1875 42.25 -65 43 C-59.02913591 46.62408675 -54.67893974 51.34380536 -50.4375 56.8125 C-49.87377686 57.52317627 -49.31005371 58.23385254 -48.72924805 58.96606445 C-47.14317063 60.97002504 -45.56991502 62.98336988 -44 65 C-43.32710937 65.85335937 -42.65421875 66.70671875 -41.9609375 67.5859375 C-40.29249581 69.71300297 -38.64403948 71.85401927 -37 74 C-36.12003046 75.14341298 -35.23979998 76.28662517 -34.359375 77.4296875 C-31.904109 80.61814998 -29.45148524 83.80862988 -27 87 C-25.02 86.505 -25.02 86.505 -23 86 C-24.29294993 80.94456576 -26.07817243 76.50376733 -28.5 71.875 C-29.21799918 70.47099833 -29.93404371 69.06599586 -30.6484375 67.66015625 C-31.02838867 66.91266113 -31.40833984 66.16516602 -31.79980469 65.39501953 C-33.97019381 61.06395418 -36.04706257 56.6884887 -38.125 52.3125 C-38.54910156 51.41974365 -38.97320312 50.5269873 -39.41015625 49.60717773 C-42.26204032 43.5885696 -45.07625083 37.55402071 -47.84375 31.49609375 C-48.55843674 29.95323961 -49.31425093 28.42784659 -50.1328125 26.9375 C-51.71303412 23.40691477 -51.5656544 19.77776332 -51 16 C-49.20606332 13.12970131 -48.01736724 11.50868362 -45 10 C-40.30721872 9.53072187 -38.01723985 9.43034568 -33.875 11.75 C-25.61071599 19.74169893 -21.52206633 34.65409341 -16.9375 45.0625 C-15.55173886 48.19964237 -14.16449521 51.33612845 -12.77734375 54.47265625 C-12.44874359 55.21649567 -12.12014343 55.96033508 -11.78158569 56.72671509 C-9.22759733 62.5027499 -6.63370813 68.25982643 -4 74 C-2.02 74 -0.04 74 2 74 C-1.30128879 57.90228706 -6.29582494 42.13529813 -11.2734375 26.48828125 C-13.2755 19.63175538 -14.62333907 11.7104893 -11.6875 5 C-11.130625 4.34 -10.57375 3.68 -10 3 C-9.5875 2.401875 -9.175 1.80375 -8.75 1.1875 C-5.71733753 -0.8703781 -3.55888297 -0.53383245 0 0 Z " fill="#912DDA" transform="translate(121,287)"/>
<path d="M0 0 C1.02867187 0.46921875 2.05734375 0.9384375 3.1171875 1.421875 C24.95562877 11.93897136 43.19925458 30.19806869 52 53 C52.47566406 54.1446875 52.47566406 54.1446875 52.9609375 55.3125 C62.13055666 78.47785366 61.44500529 104.23137154 51.9453125 127.15625 C47.97527458 136.15109929 43.36755915 144.46312545 37 152 C36.16726563 152.99386719 35.33453125 153.98773438 34.4765625 155.01171875 C20.04590672 171.72683494 1.88496201 180.93430218 -19 187 C-20.22460938 187.37382812 -21.44921875 187.74765625 -22.7109375 188.1328125 C-45.30001943 193.567488 -70.41676587 187.7599065 -90 176 C-111.89758982 161.8275546 -127.63207138 142.05095729 -135 117 C-135.31839844 115.97519531 -135.63679687 114.95039063 -135.96484375 113.89453125 C-138.04198839 106.03584117 -138.27628176 98.40935437 -138.3125 90.3125 C-138.31805908 89.26731201 -138.32361816 88.22212402 -138.3293457 87.14526367 C-138.0948269 61.73905994 -126.99776561 37.89296143 -109.375 19.8125 C-98.58523738 9.24168548 -86.6743579 2.23371886 -72.47265625 -2.7578125 C-69.21272025 -3.64473456 -69.21272025 -3.64473456 -68 -5 C-45.38583371 -10.00964635 -21.17406561 -10.19520227 0 0 Z " fill="#101010" transform="translate(340,96)"/>
<path d="M0 0 C16.71988083 0.2790224 30.88398388 6.56409108 42.6328125 18.47265625 C52.43738256 29.1531832 55.57355043 40.71893657 55.55859375 54.97265625 C55.10453523 58.33923428 54.41993476 59.7464686 52.125 62.1875 C49.75390625 62.015625 49.75390625 62.015625 47.125 61.1875 C45.90234375 58.859375 45.90234375 58.859375 45.0625 55.9375 C42.41606182 47.84128201 38.5654031 44.06707371 31.125 40.1875 C27.51367079 38.85495586 23.84730569 37.84793369 20.125 36.875 C19.15949219 36.61138672 18.19398438 36.34777344 17.19921875 36.07617188 C14.84403035 35.43490771 12.4863306 34.80568457 10.125 34.1875 C10.14165459 35.4817691 10.14165459 35.4817691 10.15864563 36.80218506 C10.25932035 44.98053568 10.33520313 53.15867469 10.38406086 61.33750534 C10.41002478 65.54119302 10.44517672 69.74436368 10.50219727 73.94775391 C10.55699452 78.01323694 10.58651952 82.07822642 10.59938622 86.1440506 C10.60854145 87.68605558 10.6264169 89.22803714 10.65365028 90.7698288 C10.86377211 103.17221821 9.05639402 114.08453896 0.15625 123.43359375 C-8.22697507 130.67218616 -15.39273681 132.57388007 -26.2578125 132.4609375 C-32.99390328 131.95172977 -38.53727056 130.0214168 -43.25 125.0625 C-48.86373596 117.56688665 -51.13945202 109.47789482 -49.875 100.1875 C-47.82036288 91.12532567 -42.3152127 84.95302036 -34.78125 79.73828125 C-28.30995881 76.29738948 -21.02182742 76.30898633 -13.875 77.1875 C-12.45578252 77.66086889 -11.04851093 78.17136464 -9.65454102 78.71459961 C-8.94386978 78.9891246 -8.23319855 79.2636496 -7.50099182 79.54649353 C-6.96441452 79.75802567 -6.42783722 79.9695578 -5.875 80.1875 C-5.87722061 79.20000259 -5.87944122 78.21250519 -5.88172913 77.19508362 C-5.90196082 67.90950971 -5.91697227 58.62394025 -5.92681217 49.33834934 C-5.93204093 44.5640172 -5.93913844 39.78970279 -5.95043945 35.01538086 C-5.9612686 30.41183738 -5.96727689 25.80831101 -5.96987724 21.20475578 C-5.97173144 19.44440377 -5.97535196 17.68405274 -5.98073006 15.92370796 C-5.98794086 13.46677723 -5.98899093 11.00991805 -5.98852539 8.55297852 C-5.99212067 7.81786545 -5.99571594 7.08275238 -5.99942017 6.32536316 C-5.98743679 0.51882425 -5.76147794 0.04080367 0 0 Z " fill="#F2D529" transform="translate(294.875,116.8125)"/>
<path d="M0 0 C3.875 1.75 3.875 1.75 5 4 C5 10.27 5 16.54 5 23 C-145.81 23 -296.62 23 -452 23 C-451.67 22.34 -451.34 21.68 -451 21 C-450.35742249 20.98969254 -449.71484497 20.97938507 -449.05279541 20.96876526 C-442.36940441 20.86064832 -435.68614681 20.74605435 -429.00292969 20.62768555 C-426.50816639 20.5843534 -424.01337377 20.54267709 -421.51855469 20.50268555 C-417.93415484 20.44494164 -414.3499024 20.38125865 -410.765625 20.31640625 C-409.64883362 20.29969376 -408.53204224 20.28298126 -407.38140869 20.26576233 C-406.34063171 20.24581711 -405.29985474 20.22587189 -404.22753906 20.20532227 C-403.31264709 20.18977798 -402.39775513 20.1742337 -401.45513916 20.15821838 C-399.00885364 20.07594077 -399.00885364 20.07594077 -396.73577881 19.42466736 C-396.1629718 19.28452713 -395.59016479 19.1443869 -395 19 C-394.67 19.33 -394.34 19.66 -394 20 C-392.24890286 20.07559237 -390.49479479 20.0830685 -388.7421875 20.0625 C-387.6476123 20.05412109 -386.55303711 20.04574219 -385.42529297 20.03710938 C-384.25369629 20.02486328 -383.08209961 20.01261719 -381.875 20 C-372.19446679 19.94173937 -362.64122929 20.10906132 -353 21 C-352.67 20.34 -352.34 19.68 -352 19 C-352 19.66 -352 20.32 -352 21 C-351.13796506 20.83753786 -350.27593013 20.67507572 -349.38777292 20.50769049 C-346.12556619 20.01881731 -343.0908892 19.87577277 -339.79563332 19.87695217 C-338.56449857 19.87496112 -337.33336383 19.87297007 -336.06492198 19.87091869 C-334.70698759 19.87377135 -333.34905339 19.87671694 -331.99111938 19.87974548 C-330.54226073 19.87930927 -329.09340216 19.87843342 -327.64454401 19.87715632 C-323.66753916 19.87492131 -319.69056127 19.87891906 -315.71355987 19.88393438 C-311.4232367 19.88825294 -307.13291506 19.88679145 -302.84259033 19.8860321 C-295.41073878 19.88550776 -287.97889601 19.88864521 -280.54704666 19.89426994 C-269.80184069 19.90239707 -259.05663897 19.90500141 -248.31143026 19.90625793 C-230.87802792 19.90844654 -213.44463027 19.91510146 -196.01123047 19.92456055 C-179.07633487 19.9337396 -162.14144055 19.94081802 -145.20654297 19.94506836 C-144.16267086 19.94533108 -143.11879875 19.94559381 -142.04329415 19.94586449 C-136.80649302 19.94716953 -131.56969189 19.94843324 -126.33289075 19.94967639 C-82.88859056 19.96004306 -39.4442956 19.97773053 4 20 C4 15.71 4 11.42 4 7 C2.68 7.33 1.36 7.66 0 8 C0 5.36 0 2.72 0 0 Z " fill="#A814D2" transform="translate(526,532)"/>
<path d="M0 0 C1.125 1.75 1.125 1.75 2 4 C1.125 6.25 1.125 6.25 0 8 C-2.66666667 8 -5.33333333 8 -8 8 C-8.66 8.33 -9.32 8.66 -10 9 C-10 8.34 -10 7.68 -10 7 C-12.475 6.505 -12.475 6.505 -15 6 C-15 6.66 -15 7.32 -15 8 C-25.82130588 9.13084386 -36.17833283 8.75473001 -47 8 C-47.66 8 -48.32 8 -49 8 C-49.061875 8.598125 -49.12375 9.19625 -49.1875 9.8125 C-50.3236757 12.87143458 -52.17330142 13.55041099 -55 15 C-54.47731534 17.76276177 -53.89130413 20.3260876 -53 23 C-53.66 23 -54.32 23 -55 23 C-55 23.99 -55 24.98 -55 26 C-54.34 26 -53.68 26 -53 26 C-53 26.66 -53 27.32 -53 28 C97.81 28.33 248.62 28.66 404 29 C404 23.39 404 17.78 404 12 C404.33 12 404.66 12 405 12 C405 17.94 405 23.88 405 30 C252.54 30 100.08 30 -57 30 C-57 10.6599511 -57 10.6599511 -52.12774658 4.71588135 C-49.52291498 2.61526373 -48.26792414 2.51244521 -44.95605469 2.54589844 C-43.95531921 2.54620056 -42.95458374 2.54650269 -41.92352295 2.54681396 C-40.85047913 2.56745911 -39.7774353 2.58810425 -38.671875 2.609375 C-37.01566132 2.61786469 -37.01566132 2.61786469 -35.32598877 2.62652588 C-31.80021774 2.64891232 -28.27546376 2.69911504 -24.75 2.75 C-22.35938968 2.77006197 -19.96876342 2.78831326 -17.578125 2.8046875 C-11.71840313 2.84878457 -5.85927422 2.91572002 0 3 C0 2.01 0 1.02 0 0 Z " fill="#972EB2" transform="translate(127,526)"/>
<path d="M0 0 C64.35 0 128.7 0 195 0 C194.67 0.99 194.34 1.98 194 3 C193.01 3.33 192.02 3.66 191 4 C191 3.34 191 2.68 191 2 C189.80375 2.33 188.6075 2.66 187.375 3 C183.83474198 3.89134156 180.66516856 4.17453184 177 4 C175.01717007 3.90842629 175.01717007 3.90842629 173.25 4.5 C170.46373189 5.11917069 167.84507877 5.06466088 165 5 C165 4.34 165 3.68 165 3 C164.01 3.66 163.02 4.32 162 5 C160.68 5 159.36 5 158 5 C158 4.34 158 3.68 158 3 C157.34 3 156.68 3 156 3 C156 3.66 156 4.32 156 5 C154.02 4.67 152.04 4.34 150 4 C150 3.34 150 2.68 150 2 C149.34 2 148.68 2 148 2 C148 2.66 148 3.32 148 4 C143 4 138 4 133 4 C133 3.34 133 2.68 133 2 C132.34 2 131.68 2 131 2 C131 2.66 131 3.32 131 4 C129.72125 3.979375 128.4425 3.95875 127.125 3.9375 C123.75000097 3.93222656 120.47760194 4.11853407 117.125 4.5 C103.85954064 5.95318021 103.85954064 5.95318021 98 4 C95.60835693 3.61856216 93.21175762 3.26767307 90.8125 2.9375 C88.90404297 2.67259766 88.90404297 2.67259766 86.95703125 2.40234375 C85.98121094 2.26957031 85.00539063 2.13679687 84 2 C84 2.66 84 3.32 84 4 C83.33613281 3.98839844 82.67226563 3.97679687 81.98828125 3.96484375 C77.49084312 3.91888453 73.40619708 4.00505227 69 5 C68.505 4.505 68.505 4.505 68 4 C64.79950343 3.82700019 62.07045451 4.0902357 59 5 C59 4.34 59 3.68 59 3 C58.236875 3.165 57.47375 3.33 56.6875 3.5 C50.33352886 4.68213417 43.45291651 4 37 4 C35.845 4.165 34.69 4.33 33.5 4.5 C27.42367327 5.36804668 24.37056897 4.47872414 19 2 C19 2.66 19 3.32 19 4 C17.25008666 4.02715383 15.50005055 4.04646551 13.75 4.0625 C12.28820312 4.07990234 12.28820312 4.07990234 10.796875 4.09765625 C8 4 8 4 5.765625 3.43359375 C3.90909977 2.77560823 3.90909977 2.77560823 2 4 C1.34 2.68 0.68 1.36 0 0 Z " fill="#A21DDA" transform="translate(203,530)"/>
<path d="M0 0 C2.02081719 3.03122578 2.71470486 5.17087903 3.62109375 8.6640625 C3.91693359 9.78683594 4.21277344 10.90960938 4.51757812 12.06640625 C4.82115234 13.24074219 5.12472656 14.41507812 5.4375 15.625 C8.12524828 25.98567708 8.12524828 25.98567708 11.45068359 36.15356445 C12.23655186 38.79512965 12.20987986 41.27156188 12 44 C9.03 44.495 9.03 44.495 6 45 C0.74933549 34.85848808 -3.94922375 24.6793192 -8 14 C-6.35 14 -4.7 14 -3 14 C0.00559652 8.99067246 0.29341888 5.67276511 0 0 Z " fill="#110E14" transform="translate(111,317)"/>
<path d="M0 0 C1.125 1.75 1.125 1.75 2 4 C1.125 6.25 1.125 6.25 0 8 C-2.66666667 8 -5.33333333 8 -8 8 C-8.66 8.33 -9.32 8.66 -10 9 C-10 8.34 -10 7.68 -10 7 C-12.475 6.505 -12.475 6.505 -15 6 C-15 6.66 -15 7.32 -15 8 C-25.82130588 9.13084386 -36.17833283 8.75473001 -47 8 C-47.66 8 -48.32 8 -49 8 C-49.061875 8.598125 -49.12375 9.19625 -49.1875 9.8125 C-50.3236757 12.87143458 -52.17330142 13.55041099 -55 15 C-54.47731534 17.76276177 -53.89130413 20.3260876 -53 23 C-53.66 23 -54.32 23 -55 23 C-55 23.99 -55 24.98 -55 26 C-54.34 26 -53.68 26 -53 26 C-53.33 26.99 -53.66 27.98 -54 29 C-54.99 29 -55.98 29 -57 29 C-57.08126109 26.27022936 -57.14061663 23.5428983 -57.1875 20.8125 C-57.21263672 20.04357422 -57.23777344 19.27464844 -57.26367188 18.48242188 C-57.34049918 12.51550138 -56.11187601 9.48360873 -52.206604 4.89093018 C-49.54564376 2.61064336 -48.40976372 2.51101249 -44.95605469 2.54589844 C-43.95531921 2.54620056 -42.95458374 2.54650269 -41.92352295 2.54681396 C-40.85047913 2.56745911 -39.7774353 2.58810425 -38.671875 2.609375 C-37.01566132 2.61786469 -37.01566132 2.61786469 -35.32598877 2.62652588 C-31.80021774 2.64891232 -28.27546376 2.69911504 -24.75 2.75 C-22.35938968 2.77006197 -19.96876342 2.78831326 -17.578125 2.8046875 C-11.71840313 2.84878457 -5.85927422 2.91572002 0 3 C0 2.01 0 1.02 0 0 Z " fill="#941CC3" transform="translate(127,526)"/>
<path d="M0 0 C3.1875 1.9375 3.1875 1.9375 5 5 C5.86336097 11.59169247 2.63073531 17.87263512 0.2109375 23.82421875 C-1.32474487 27.8516696 -2.21124379 31.7693985 -3 36 C-3.33 34.68 -3.66 33.36 -4 32 C-4.66 32 -5.32 32 -6 32 C-6 31.34 -6 30.68 -6 30 C-5.34 30 -4.68 30 -4 30 C-4.04125 28.948125 -4.0825 27.89625 -4.125 26.8125 C-4.00852125 23.25989827 -3.52791932 21.15133359 -2 18 C-1.34 18 -0.68 18 0 18 C0 15.36 0 12.72 0 10 C0.33 10 0.66 10 1 10 C1.04254356 8.00045254 1.04080783 5.99958364 1 4 C0.00353536 2.78429926 0.00353536 2.78429926 -1.9609375 2.8671875 C-3.15589844 2.87105469 -3.15589844 2.87105469 -4.375 2.875 C-5.56222656 2.87113281 -5.56222656 2.87113281 -6.7734375 2.8671875 C-9.17343496 2.91382334 -9.17343496 2.91382334 -12 4 C-13.74059145 6.51418765 -14.06259258 8.43814809 -14.5 11.5 C-15.11988959 15.83922714 -16.09986626 17.9546834 -18.9375 21.25 C-21.52422604 24.69896805 -22.61871936 27.9252221 -24 32 C-25.53623934 27.23065999 -24.00745271 23.84088698 -22.4375 19.25 C-22.16446045 18.44175781 -21.8914209 17.63351562 -21.61010742 16.80078125 C-17.71414538 5.78361215 -12.69357646 -1.89697327 0 0 Z " fill="#8E3DDA" transform="translate(196,340)"/>
<path d="M0 0 C16.17 0 32.34 0 49 0 C48 4 48 4 46 6 C45.34 5.67 44.68 5.34 44 5 C41.60316765 4.92566233 39.23577035 4.90853835 36.83984375 4.9375 C36.13477188 4.94128662 35.42970001 4.94507324 34.70326233 4.94897461 C32.44794678 4.96120928 30.19275786 4.97984449 27.9375 5 C24.96745153 5.0264817 21.9974652 5.04652715 19.02734375 5.0625 C18.33881821 5.07079834 17.65029266 5.07909668 16.94090271 5.08764648 C15.29369838 5.09622683 13.64636573 5.05325029 12 5 C11.67 4.67 11.34 4.34 11 4 C10.0925 4.04125 9.185 4.0825 8.25 4.125 C4.59365924 3.98437151 2.91412292 3.14273744 0 1 C0 0.67 0 0.34 0 0 Z " fill="#A41CDB" transform="translate(473,530)"/>
<path d="M0 0 C2.4375 1.58203125 2.4375 1.58203125 5 3.8125 C5.95519531 4.62976563 6.91039063 5.44703125 7.89453125 6.2890625 C8.39807129 6.72895508 8.90161133 7.16884766 9.42041016 7.62207031 C12.15227144 10.00516538 14.92183203 12.34382268 17.6875 14.6875 C18.2343042 15.1530127 18.7811084 15.61852539 19.34448242 16.09814453 C23.44641977 19.57621073 27.64809675 22.84273686 32 26 C31.01 26.33 30.02 26.66 29 27 C28.01 26.34 27.02 25.68 26 25 C26 24.34 26 23.68 26 23 C24.68 22.67 23.36 22.34 22 22 C22 21.34 22 20.68 22 20 C21.071875 19.5359375 21.071875 19.5359375 20.125 19.0625 C18.75 18.375 17.375 17.6875 16 17 C16 16.34 16 15.68 16 15 C15.4225 14.71125 14.845 14.4225 14.25 14.125 C12.16666667 13.08333333 10.08333333 12.04166667 8 11 C8 10.34 8 9.68 8 9 C7.34 9 6.68 9 6 9 C6 8.34 6 7.68 6 7 C4.68 7 3.36 7 2 7 C1.7525 6.360625 1.505 5.72125 1.25 5.0625 C0.18437567 2.81258459 0.18437567 2.81258459 -2.125 2.25 C-3.053125 2.12625 -3.053125 2.12625 -4 2 C-3.814375 2.61875 -3.62875 3.2375 -3.4375 3.875 C-2.90520895 7.67707889 -3.39138078 11.01083485 -3.94140625 14.79296875 C-3.96074219 15.52128906 -3.98007812 16.24960937 -4 17 C-3.34 17.66 -2.68 18.32 -2 19 C-2.33 19.99 -2.66 20.98 -3 22 C-7.03609429 17.24802355 -10.12076117 13.52110297 -10 7 C-7.80913647 1.36635093 -6.16121488 -0.68955457 0 0 Z " fill="#903DDE" transform="translate(46,373)"/>
<path d="M0 0 C2.1640625 0.3359375 2.1640625 0.3359375 4.7265625 1.7734375 C6.95503683 5.74593521 7.16500929 8.89930847 6.1640625 13.3359375 C2.70324468 20.50186617 -2.40624862 26.57617634 -7.8359375 32.3359375 C-8.99774701 28.85050896 -8.7131506 28.36363081 -7.1484375 25.2109375 C-6.81457031 24.50710938 -6.48070312 23.80328125 -6.13671875 23.078125 C-4.8359375 21.3359375 -4.8359375 21.3359375 -2.69140625 20.59375 C-2.07910156 20.50867188 -1.46679688 20.42359375 -0.8359375 20.3359375 C-0.8359375 19.6759375 -0.8359375 19.0159375 -0.8359375 18.3359375 C-0.1759375 18.3359375 0.4840625 18.3359375 1.1640625 18.3359375 C2.0082563 14.35616674 2.61093515 10.36586532 3.1640625 6.3359375 C2.1740625 6.0059375 1.1840625 5.6759375 0.1640625 5.3359375 C-0.5234375 3.2734375 -0.5234375 3.2734375 -0.8359375 1.3359375 C-3.17741981 1.21379856 -3.17741981 1.21379856 -5.8359375 2.3359375 C-7.30664394 4.24828465 -8.46330595 6.21524522 -9.625 8.328125 C-10.8468688 10.3540623 -12.02780771 11.81481244 -13.8359375 13.3359375 C-14.4959375 13.3359375 -15.1559375 13.3359375 -15.8359375 13.3359375 C-15.8359375 13.9959375 -15.8359375 14.6559375 -15.8359375 15.3359375 C-16.8259375 15.0059375 -17.8159375 14.6759375 -18.8359375 14.3359375 C-17.4004872 12.56344226 -15.96249947 10.79300174 -14.5234375 9.0234375 C-13.72292969 8.03730469 -12.92242188 7.05117188 -12.09765625 6.03515625 C-11.35128906 5.14441406 -10.60492187 4.25367188 -9.8359375 3.3359375 C-9.33578125 2.73265625 -8.835625 2.129375 -8.3203125 1.5078125 C-5.74410877 -0.52603255 -3.15543593 -0.13361781 0 0 Z " fill="#933DDE" transform="translate(548.8359375,330.6640625)"/>
<path d="M0 0 C-1 3 -1 3 -2.9375 4 C-3.9584375 4.495 -3.9584375 4.495 -5 5 C-6.9451 7.91765 -7.45276317 9.62537285 -8 13 C-7.34 13 -6.68 13 -6 13 C-6 13.66 -6 14.32 -6 15 C-5.01 15 -4.02 15 -3 15 C-3.33 15.66 -3.66 16.32 -4 17 C-4.83333333 18.91666667 -4.83333333 18.91666667 -5 21 C-3.7087646 22.62485459 -3.7087646 22.62485459 -2 24 C0 27 0 27 0 30 C0.66 30.33 1.32 30.66 2 31 C1.62875 32.258125 1.2575 33.51625 0.875 34.8125 C-0.22975036 39.69181409 0.42274805 43.50417382 1.484375 48.3359375 C2.18646897 51.96342303 2.13899265 55.3166947 2 59 C-0.35824553 55.18044847 -0.74453641 51.04213996 -1.375 46.6875 C-2.95508455 36.59234495 -4.72949924 26.37365703 -9.25 17.125 C-11.32646281 12.76607609 -11.92536809 8.76993863 -11 4 C-8.16991495 -0.64133948 -5.1404796 -0.39542151 0 0 Z " fill="#933EE1" transform="translate(412,340)"/>
<path d="M0 0 C0.99 0.33 1.98 0.66 3 1 C2.51966309 1.41540039 2.03932617 1.83080078 1.54443359 2.25878906 C-9.50359361 11.86275183 -20.35665238 21.75165333 -30.01953125 32.765625 C-31.93826725 34.9303528 -33.93427755 36.9760562 -36 39 C-36 37.02 -36 35.04 -36 33 C-35.34 33 -34.68 33 -34 33 C-34 32.34 -34 31.68 -34 31 C-33.34 31 -32.68 31 -32 31 C-31.67 30.01 -31.34 29.02 -31 28 C-29.08007717 25.03284654 -28.44184294 24.14728098 -25 23 C-23.78130071 20.49552484 -23.78130071 20.49552484 -23 18 C-22.01 18 -21.02 18 -20 18 C-19.34 17.01 -18.68 16.02 -18 15 C-17.01 15 -16.02 15 -15 15 C-14.9175 14.401875 -14.835 13.80375 -14.75 13.1875 C-13.7861311 10.3762157 -12.40044903 9.67304023 -10 8 C-9.34 7.01 -8.68 6.02 -8 5 C-4.875 3.8125 -4.875 3.8125 -2 3 C-2 2.34 -2 1.68 -2 1 C-1.34 0.67 -0.68 0.34 0 0 Z M-28 20 C-27.01 20.495 -27.01 20.495 -26 21 C-26.33 21.99 -26.66 22.98 -27 24 C-27.33 22.68 -27.66 21.36 -28 20 Z " fill="#8338D3" transform="translate(554,394)"/>
<path d="M0 0 C6.52894462 3.65620899 9.28046684 10.23009831 12 17 C12 17.99 12 18.98 12 20 C11.01 19.67 10.02 19.34 9 19 C8.0078125 16.85546875 8.0078125 16.85546875 7.125 14.1875 C5.52287966 9.84687165 4.0598335 7.48100936 0 5 C0 5.66 0 6.32 0 7 C-2.64 6.34 -5.28 5.68 -8 5 C-8.33 6.32 -8.66 7.64 -9 9 C-9.66 8.67 -10.32 8.34 -11 8 C-11 11.3 -11 14.6 -11 18 C-14.43076923 14.56923077 -14.43076923 14.56923077 -14.4375 10.625 C-14.30284 6.27335579 -13.23388885 4.04366009 -10 1 C-6.75152526 -0.62423737 -3.51091599 -0.53912942 0 0 Z " fill="#933AE3" transform="translate(84,297)"/>
<path d="M0 0 C1.485 0.99 1.485 0.99 3 2 C3.37400786 4.32716 3.70764733 6.66117862 4 9 C4.66 9.66 5.32 10.32 6 11 C6.4140625 13.3828125 6.4140625 13.3828125 6.625 16.125 C6.69976562 17.03507812 6.77453125 17.94515625 6.8515625 18.8828125 C6.90054688 19.58148438 6.94953125 20.28015625 7 21 C7.99 21 8.98 21 10 21 C10.66 21.66 11.32 22.32 12 23 C11.34 23.66 10.68 24.32 10 25 C9.3574765 27.06874034 9.3574765 27.06874034 9 29 C9.99 29 10.98 29 12 29 C11.67 31.31 11.34 33.62 11 36 C12.65 36.33 14.3 36.66 16 37 C15.01 40.63 14.02 44.26 13 48 C11.40837032 44.81674063 10.37685441 42.19039806 9.4140625 38.81640625 C9.12474854 37.812146 8.83543457 36.80788574 8.53735352 35.77319336 C8.23627686 34.71366455 7.9352002 33.65413574 7.625 32.5625 C5.69460418 25.82043807 3.74036427 19.10379422 1.5625 12.4375 C0.19584347 8.08746133 -0.4224141 4.54095159 0 0 Z " fill="#973EE3" transform="translate(109,304)"/>
<path d="M0 0 C0.66 0.33 1.32 0.66 2 1 C2.625 3.5625 2.625 3.5625 3 6 C2.34 6 1.68 6 1 6 C1 7.32 1 8.64 1 10 C1.99 10.33 2.98 10.66 4 11 C4 11.66 4 12.32 4 13 C4.66 13 5.32 13 6 13 C6.33 16.3 6.66 19.6 7 23 C7.66 22.67 8.32 22.34 9 22 C9.66 23.32 10.32 24.64 11 26 C11.66 26 12.32 26 13 26 C13 27.32 13 28.64 13 30 C12.34 30 11.68 30 11 30 C11.185625 31.155 11.37125 32.31 11.5625 33.5 C12.1235724 37.86389648 11.69632186 41.66733065 11 46 C10.67 46 10.34 46 10 46 C9.98001953 45.35095703 9.96003906 44.70191406 9.93945312 44.03320312 C9.49001584 36.21521378 7.39853492 29.7328766 4.5 22.5 C4.08363281 21.43007813 3.66726563 20.36015625 3.23828125 19.2578125 C2.47338308 17.29234601 1.70261127 15.32914689 0.92382812 13.36914062 C-0.77322552 9.01707705 -1.17342236 5.68240373 -1 1 C-0.67 0.67 -0.34 0.34 0 0 Z " fill="#903EE6" transform="translate(416,403)"/>
<path d="M0 0 C0.99 0.33 1.98 0.66 3 1 C3 0.34 3 -0.32 3 -1 C4.32 -1 5.64 -1 7 -1 C7 -0.34 7 0.32 7 1 C6.01 1.495 6.01 1.495 5 2 C6.98 2.99 8.96 3.98 11 5 C4.9190644 8.0404678 -2.44933784 2.81962838 -9 1 C-9 24.43 -9 47.86 -9 72 C-9.33 72 -9.66 72 -10 72 C-10 48.24 -10 24.48 -10 0 C-6.78455056 -1.60772472 -3.42887101 -0.61108592 0 0 Z " fill="#B8B556" transform="translate(314,150)"/>
<path d="M0 0 C7.23064323 1.84969943 10.53212588 6.34069279 15 12 C15.5775 12.53625 16.155 13.0725 16.75 13.625 C18 15 18 15 18 18 C19.32 18.33 20.64 18.66 22 19 C22 20.32 22 21.64 22 23 C23.65 23.33 25.3 23.66 27 24 C27.33 25.65 27.66 27.3 28 29 C28.66 29 29.32 29 30 29 C30.33 30.65 30.66 32.3 31 34 C31.99 34.33 32.98 34.66 34 35 C34.495 37.97 34.495 37.97 35 41 C31.40967774 37.54312335 28.32779028 33.9871607 25.3125 30 C24.88606201 29.44038574 24.45962402 28.88077148 24.02026367 28.30419922 C22.23190905 25.95663571 20.45268172 23.60234793 18.6796875 21.24316406 C13.80813615 14.76356321 8.9613232 8.53438494 3 3 C1.99652982 2.00348227 0.99553246 1.00444767 0 0 Z " fill="#873ADA" transform="translate(63,412)"/>
<path d="M0 0 C0.66 0 1.32 0 2 0 C1.67 3.96 1.34 7.92 1 12 C0.34 12 -0.32 12 -1 12 C-0.938125 12.639375 -0.87625 13.27875 -0.8125 13.9375 C-1.20827815 20.40187643 -3.37118291 26.37118291 -8 31 C-8.66 31 -9.32 31 -10 31 C-9.31958956 27.12134694 -8.23298753 23.53938688 -6.93359375 19.82421875 C-6.53076172 18.66728516 -6.12792969 17.51035156 -5.71289062 16.31835938 C-5.29201172 15.12017578 -4.87113281 13.92199219 -4.4375 12.6875 C-4.01275391 11.46998047 -3.58800781 10.25246094 -3.15039062 8.99804688 C-2.10319604 5.99765789 -1.05296597 2.99836741 0 0 Z " fill="#8E29D1" transform="translate(411,488)"/>
<path d="M0 0 C3.125 0.625 3.125 0.625 6 3.25 C8.33563803 6.95954275 8.92508816 8.35786317 8.125 12.625 C5.9919997 16.51010769 3.86006748 19.22388519 0.125 21.625 C-0.80565133 19.01917629 -1.02417407 17.98301776 0.0625 15.375 C0.413125 14.7975 0.76375 14.22 1.125 13.625 C2.445 13.955 3.765 14.285 5.125 14.625 C5.125 13.965 5.125 13.305 5.125 12.625 C4.465 12.625 3.805 12.625 3.125 12.625 C3.125 10.645 3.125 8.665 3.125 6.625 C3.785 6.625 4.445 6.625 5.125 6.625 C3.07266315 4.3772025 2.11832739 3.6227758 -0.875 2.625 C-0.875 3.615 -0.875 4.605 -0.875 5.625 C-2.525 5.295 -4.175 4.965 -5.875 4.625 C-4.19190101 1.63282402 -3.41978571 0.74343168 0 0 Z " fill="#8E3EDD" transform="translate(556.875,372.375)"/>
<path d="M0 0 C0.99 0.33 1.98 0.66 3 1 C3.70381157 2.98723268 4.3711811 4.98777953 5 7 C5.66 7.33 6.32 7.66 7 8 C7.72693904 9.97888961 8.39816251 11.97954558 9 14 C9.99 14 10.98 14 12 14 C11.34 15.98 10.68 17.96 10 20 C11.2065625 20.433125 11.2065625 20.433125 12.4375 20.875 C15 22 15 22 16 24 C15.34 24.33 14.68 24.66 14 25 C14.66 25.99 15.32 26.98 16 28 C16 29.32 16 30.64 16 32 C17.485 32.495 17.485 32.495 19 33 C19.33 35.31 19.66 37.62 20 40 C17.44563832 37.70214132 16.02976359 35.42251521 14.51171875 32.3515625 C14.05514893 31.43407227 13.5985791 30.51658203 13.12817383 29.57128906 C12.65275146 28.59901367 12.1773291 27.62673828 11.6875 26.625 C11.19983154 25.63725586 10.71216309 24.64951172 10.2097168 23.63183594 C0 2.87609825 0 2.87609825 0 0 Z " fill="#9640E0" transform="translate(74,319)"/>
<path d="M0 0 C2.2771113 7.40061174 0.24193709 12.3522734 -3 19 C-5.3246139 23.91745247 -6.50677612 28.3830096 -7.4609375 33.6875 C-8.12107684 36.51940211 -9.285684 38.66229637 -11 41 C-12.40643695 36.52475893 -11.10367803 33.10387562 -9.7265625 28.76953125 C-9.36176285 27.58299202 -9.36176285 27.58299202 -8.98959351 26.3724823 C-8.47469212 24.70428871 -7.9549318 23.03758819 -7.43066406 21.37231445 C-6.62562389 18.81448228 -5.83498958 16.2525452 -5.046875 13.68945312 C-4.54510199 12.07005473 -4.04252549 10.45090503 -3.5390625 8.83203125 C-3.30047516 8.0622847 -3.06188782 7.29253815 -2.81607056 6.49946594 C-1.11740861 1.11740861 -1.11740861 1.11740861 0 0 Z " fill="#9442D9" transform="translate(472,300)"/>
<path d="M0 0 C0.33 0.66 0.66 1.32 1 2 C-2.72260207 10.9268368 -9.28935602 18.33952623 -15.6875 25.4375 C-16.1633252 25.97028564 -16.63915039 26.50307129 -17.12939453 27.05200195 C-19.39772615 29.52425105 -20.76274254 30.92091418 -24 32 C-24 31.34 -24 30.68 -24 30 C-23.34 30 -22.68 30 -22 30 C-21.72236816 29.41299316 -21.44473633 28.82598633 -21.15869141 28.22119141 C-20.06507509 26.12474783 -18.88146361 24.34615561 -17.4609375 22.4609375 C-16.96625977 21.80222656 -16.47158203 21.14351563 -15.96191406 20.46484375 C-15.43823242 19.77519531 -14.91455078 19.08554687 -14.375 18.375 C-13.84100586 17.66730469 -13.30701172 16.95960938 -12.75683594 16.23046875 C-8.60032253 10.74177154 -4.35724085 5.33121233 0 0 Z " fill="#8E3ADB" transform="translate(529,346)"/>
<path d="M0 0 C2.02408755 0.09002398 4.04544287 0.24641038 6.0625 0.4375 C7.71958984 0.59025391 7.71958984 0.59025391 9.41015625 0.74609375 C10.26480469 0.82988281 11.11945313 0.91367188 12 1 C12 1.33 12 1.66 12 2 C8.37 2.33 4.74 2.66 1 3 C0.67 28.08 0.34 53.16 0 79 C-0.33 79 -0.66 79 -1 79 C-1.02312392 68.84733849 -1.04091534 58.6946832 -1.05181217 48.54200077 C-1.05704089 43.82820267 -1.06413834 39.11442253 -1.07543945 34.40063477 C-1.08626873 29.85544596 -1.09227692 25.31027448 -1.09487724 20.76507378 C-1.09673142 19.02705042 -1.10035189 17.28902806 -1.10573006 15.55101204 C-1.11294103 13.12521405 -1.11399092 10.69948854 -1.11352539 8.27368164 C-1.11712067 7.54791931 -1.12071594 6.82215698 -1.12442017 6.07440186 C-1.11405216 1.11405216 -1.11405216 1.11405216 0 0 Z " fill="#F5D71E" transform="translate(292,118)"/>
<path d="M0 0 C5.174794 0.58932911 9.29186556 2.2240232 13.9375 4.4375 C15.04424072 4.962229 15.04424072 4.962229 16.17333984 5.49755859 C26.6282422 10.6054166 36.45570188 17.08089442 45 25 C44.01 25.495 44.01 25.495 43 26 C40.57628847 24.75707101 38.52359207 23.53388742 36.609375 21.58203125 C31.84577871 16.89936984 26.27978223 14.04458026 20 12 C19.443125 11.38640625 18.88625 10.7728125 18.3125 10.140625 C15.33600539 7.38535634 12.06355897 6.22409638 8.3125 4.875 C1.12671625 2.25343249 1.12671625 2.25343249 0 0 Z " fill="#1BCDCB" transform="translate(351,49)"/>
<path d="M0 0 C2.06409551 2.45725657 3.23995595 4.56989537 4.5 7.5625 C5.8549801 10.66766274 6.67601633 11.7770591 9 14 C10.1875 16.6875 10.1875 16.6875 11 19 C11.66 19 12.32 19 13 19 C13.61875 20.299375 13.61875 20.299375 14.25 21.625 C15.97832149 24.95819144 17.87076408 27.91627901 20 31 C19.67 31.66 19.34 32.32 19 33 C16.29031762 29.70024353 13.63357091 26.36061824 11 23 C10.52401367 22.39510742 10.04802734 21.79021484 9.55761719 21.16699219 C8.04310974 19.22735984 6.55089281 17.27222126 5.0625 15.3125 C4.5780542 14.69560303 4.0936084 14.07870605 3.59448242 13.44311523 C0.5355342 9.36288443 -0.79525695 6.25066852 -1 1 C-0.67 0.67 -0.34 0.34 0 0 Z " fill="#943EE1" transform="translate(48,340)"/>
<path d="M0 0 C11.88 0 23.76 0 36 0 C35.01 1.32 34.02 2.64 33 4 C32.34 3.67 31.68 3.34 31 3 C28.59161322 2.91360131 26.21266119 2.88432236 23.8046875 2.90234375 C23.09724396 2.9037587 22.38980042 2.90517365 21.66091919 2.90663147 C19.39890331 2.912234 17.13698602 2.92478682 14.875 2.9375 C13.34244935 2.94251468 11.80989714 2.94707764 10.27734375 2.95117188 C6.51819112 2.96220423 2.75911228 2.97947048 -1 3 C-0.67 2.01 -0.34 1.02 0 0 Z " fill="#981DCA" transform="translate(486,532)"/>
<path d="M0 0 C13.53 0 27.06 0 41 0 C41 0.66 41 1.32 41 2 C39.72125 1.979375 38.4425 1.95875 37.125 1.9375 C33.75000097 1.93222656 30.47760194 2.11853407 27.125 2.5 C13.85954064 3.95318021 13.85954064 3.95318021 8 2 C6.6082227 1.78444749 5.21168784 1.59806254 3.8125 1.4375 C2.554375 1.293125 1.29625 1.14875 0 1 C0 0.67 0 0.34 0 0 Z " fill="#981FCB" transform="translate(293,532)"/>
<path d="M0 0 C0.99 0.33 1.98 0.66 3 1 C3.28875 1.78375 3.5775 2.5675 3.875 3.375 C4.83497022 6.08202345 4.83497022 6.08202345 6.9375 7.875 C11.65889121 9.60938861 16.09767278 8.71259748 21 8 C20.67 8.99 20.34 9.98 20 11 C18.35 11 16.7 11 15 11 C15 11.66 15 12.32 15 13 C20.28 13.33 25.56 13.66 31 14 C31 14.33 31 14.66 31 15 C21.58901091 15.48817811 12.5381799 15.88129967 5.08984375 9.31640625 C2.37011637 6.32663501 0.78207744 4.00704843 0 0 Z " fill="#C3AE39" transform="translate(248,234)"/>
<path d="M0 0 C-1.98 0.33 -3.96 0.66 -6 1 C-6 1.66 -6 2.32 -6 3 C-6.99 3 -7.98 3 -9 3 C-9 3.66 -9 4.32 -9 5 C-9.62648437 5.09796875 -10.25296875 5.1959375 -10.8984375 5.296875 C-11.71570313 5.44640625 -12.53296875 5.5959375 -13.375 5.75 C-14.18710938 5.88921875 -14.99921875 6.0284375 -15.8359375 6.171875 C-18.61274482 7.23447997 -18.81414901 8.37232138 -20 11 C-22.8125 11.6875 -22.8125 11.6875 -26 12 C-27.66804677 12.32635698 -29.33524314 12.65725594 -31 13 C-25.89250294 6.97718089 -7.87387098 -2.70775654 0 0 Z " fill="#19BEBD" transform="translate(255,47)"/>
<path d="M0 0 C0.66 0 1.32 0 2 0 C1.73298409 6.80890567 -0.61099324 11.82677863 -3.56640625 17.921875 C-5.12602783 21.27059926 -6.16615942 24.41448549 -7 28 C-7.33 28 -7.66 28 -8 28 C-8 23.71 -8 19.42 -8 15 C-6.68 14.67 -5.36 14.34 -4 14 C-4 12.35 -4 10.7 -4 9 C-3.34 9 -2.68 9 -2 9 C-1.22678118 6.01758453 -0.58803797 3.02419525 0 0 Z " fill="#8137D1" transform="translate(184,409)"/>
<path d="M0 0 C1.25733598 3.77200794 1.03366148 6.25297715 0 10 C-0.66 10 -1.32 10 -2 10 C-2 12.64 -2 15.28 -2 18 C-1.67 15.69 -1.34 13.38 -1 11 C1 13 1 13 1.1953125 14.9453125 C1.13020833 16.96354167 1.06510417 18.98177083 1 21 C0.01 21.33 -0.98 21.66 -2 22 C-1.67 23.65 -1.34 25.3 -1 27 C-4.22004237 23.77995763 -4.18997701 20.29872487 -4.3125 15.875 C-4.28851937 9.9357966 -2.57135307 5.29193644 0 0 Z " fill="#EFD035" transform="translate(249,207)"/>
<path d="M0 0 C0 0.66 0 1.32 0 2 C-1.27875 2.0825 -2.5575 2.165 -3.875 2.25 C-6.05508529 2.4684769 -6.05508529 2.4684769 -8 3 C-9.54400659 4.83572704 -9.54400659 4.83572704 -10 7 C-10.33 7.66 -10.66 8.32 -11 9 C-11.66 9 -12.32 9 -13 9 C-13.103125 9.721875 -13.20625 10.44375 -13.3125 11.1875 C-14.06793947 14.27793421 -15.15531315 16.41743841 -17 19 C-17.66 19 -18.32 19 -19 19 C-17.18911739 12.57959802 -14.20623904 5.40732768 -9 1 C-5.8035914 -0.06546953 -3.34252724 -0.07427838 0 0 Z " fill="#8C3DCD" transform="translate(524,297)"/>
<path d="M0 0 C0.33 0 0.66 0 1 0 C1 1.65 1 3.3 1 5 C1.66 5 2.32 5 3 5 C3.04898438 5.88042969 3.09796875 6.76085937 3.1484375 7.66796875 C3.22320312 8.82941406 3.29796875 9.99085938 3.375 11.1875 C3.47941406 12.91033203 3.47941406 12.91033203 3.5859375 14.66796875 C3.9765624 17.81139364 4.77831545 20.10867991 6 23 C5.625 25.3125 5.625 25.3125 5 27 C4.71125 26.360625 4.4225 25.72125 4.125 25.0625 C3.17176549 22.84793921 3.17176549 22.84793921 1 22 C0.33203125 18.91015625 0.33203125 18.91015625 -0.1875 15.0625 C-0.36667969 13.79535156 -0.54585937 12.52820313 -0.73046875 11.22265625 C-1 8 -1 8 0 6 C0.039992 4.00039988 0.04346799 1.99952758 0 0 Z " fill="#7C37C8" transform="translate(173,432)"/>
<path d="M0 0 C0.33 0 0.66 0 1 0 C1.67668949 2.20528272 2.34093498 4.41438609 3 6.625 C3.37125 7.85476563 3.7425 9.08453125 4.125 10.3515625 C4.93727719 13.73846826 5.17041013 16.53854429 5 20 C3.02 20.33 1.04 20.66 -1 21 C-1.33 20.01 -1.66 19.02 -2 18 C-1.34 18 -0.68 18 0 18 C0.33 15.03 0.66 12.06 1 9 C0.67 9 0.34 9 0 9 C0 6.03 0 3.06 0 0 Z " fill="#1F122D" transform="translate(118,341)"/>
<path d="M0 0 C0.96470453 3.4690385 0.94772909 6.15452847 0.5625 9.75 C0.46066406 10.73484375 0.35882813 11.7196875 0.25390625 12.734375 C0.17011719 13.48203125 0.08632813 14.2296875 0 15 C-0.99 15.33 -1.98 15.66 -3 16 C-3 17.98 -3 19.96 -3 22 C-3.99 22.33 -4.98 22.66 -6 23 C-6 24.98 -6 26.96 -6 29 C-6.66 29 -7.32 29 -8 29 C-6.60900162 22.36237179 -4.86285116 15.91941658 -2.875 9.4375 C-2.59785156 8.52419922 -2.32070313 7.61089844 -2.03515625 6.66992188 C-1.35973591 4.44569283 -0.68131033 2.22243047 0 0 Z " fill="#160E22" transform="translate(492,309)"/>
<path d="M0 0 C8.25 0 16.5 0 25 0 C24.67 0.99 24.34 1.98 24 3 C21.03 3 18.06 3 15 3 C15 2.34 15 1.68 15 1 C14.01 1.66 13.02 2.32 12 3 C10.68 3 9.36 3 8 3 C8 2.34 8 1.68 8 1 C7.34 1 6.68 1 6 1 C6 1.66 6 2.32 6 3 C3.03 2.505 3.03 2.505 0 2 C0 1.34 0 0.68 0 0 Z " fill="#981ECB" transform="translate(353,532)"/>
<path d="M0 0 C0.99 0.33 1.98 0.66 3 1 C1.02 1.99 1.02 1.99 -1 3 C-0.34 3.66 0.32 4.32 1 5 C1 6.32 1 7.64 1 9 C0.2575 9.103125 -0.485 9.20625 -1.25 9.3125 C-4.17014018 10.04253504 -5.73187554 11.06789398 -8 13 C-8 12.01 -8 11.02 -8 10 C-8.66 9.67 -9.32 9.34 -10 9 C-8.71142987 7.68445979 -7.41904109 6.37265903 -6.125 5.0625 C-5.04605469 3.96615234 -5.04605469 3.96615234 -3.9453125 2.84765625 C-2 1 -2 1 0 0 Z " fill="#F4D32A" transform="translate(260,197)"/>
<path d="M0 0 C0.66 0.33 1.32 0.66 2 1 C1.34 3.31 0.68 5.62 0 8 C0.66 8.33 1.32 8.66 2 9 C0.52292634 12.89410329 -1.43188595 14.00849448 -5 16 C-6.68477344 17.31037934 -8.35648543 18.63823078 -10 20 C-10.33 19.34 -10.66 18.68 -11 18 C-10.34 18 -9.68 18 -9 18 C-8.938125 17.443125 -8.87625 16.88625 -8.8125 16.3125 C-8 14 -8 14 -5.625 11.8125 C-2.26307818 8.21044091 -1.25538289 4.6847215 0 0 Z " fill="#8D3BDB" transform="translate(452,364)"/>
<path d="M0 0 C0.66 0 1.32 0 2 0 C2.66 2.64 3.32 5.28 4 8 C3.360625 8.268125 2.72125 8.53625 2.0625 8.8125 C-0.33131686 9.88667752 -0.33131686 9.88667752 -1 13 C-1.99 13 -2.98 13 -4 13 C-4.33 13.66 -4.66 14.32 -5 15 C-4.5188509 9.22621075 -2.81532819 5.04140164 0 0 Z " fill="#8F3BDD" transform="translate(489,349)"/>
<path d="M0 0 C0.33 0.99 0.66 1.98 1 3 C-1.01822917 2.96744792 -3.03645833 2.93489583 -5.0546875 2.90234375 C-7.08185404 2.87350758 -7.08185404 2.87350758 -9 4 C-11.28062828 7.42094242 -11.21925007 8.68187222 -11.125 12.6875 C-11.10695313 13.68136719 -11.08890625 14.67523438 -11.0703125 15.69921875 C-11.04710938 16.45847656 -11.02390625 17.21773438 -11 18 C-12.96026975 16.36730848 -13.9065055 15.44978435 -14.43359375 12.9140625 C-14.44061893 8.79730511 -14.35972018 6.57555229 -12.125 3 C-8.17322183 -0.71932063 -5.2313468 -0.08437656 0 0 Z " fill="#8A3DC7" transform="translate(84,297)"/>
<path d="M0 0 C0.66 0.33 1.32 0.66 2 1 C-0.28502861 4.15070462 -2.5791156 7.29469934 -4.875 10.4375 C-5.52597656 11.33533203 -6.17695312 12.23316406 -6.84765625 13.15820312 C-7.47285156 14.01220703 -8.09804688 14.86621094 -8.7421875 15.74609375 C-9.60626221 16.93223267 -9.60626221 16.93223267 -10.48779297 18.14233398 C-12 20 -12 20 -14 21 C-13.04879379 15.86348649 -10.09696665 12.08236513 -7 8 C-6.67 7.34 -6.34 6.68 -6 6 C-5.34 6.33 -4.68 6.66 -4 7 C-3.71125 6.030625 -3.4225 5.06125 -3.125 4.0625 C-2 1 -2 1 0 0 Z " fill="#8C3CD6" transform="translate(538,364)"/>
<path d="M0 0 C-3.03099046 6.79001294 -9.31759083 11.42635359 -15 16 C-15.66 15.67 -16.32 15.34 -17 15 C-15.23000902 13.06172464 -13.45904239 11.12435656 -11.6875 9.1875 C-11.18798828 8.64029297 -10.68847656 8.09308594 -10.17382812 7.52929688 C-8.78777469 6.01473517 -7.39413878 4.50712253 -6 3 C-5.44957031 2.37738281 -4.89914063 1.75476563 -4.33203125 1.11328125 C-3 0 -3 0 0 0 Z " fill="#19C4C2" transform="translate(202,78)"/>
<path d="M0 0 C2.87904433 3.31090098 4.33188823 6.94915299 5.9375 10.9765625 C6.96243809 13.3207484 6.96243809 13.3207484 10 15 C8.02 15 6.04 15 4 15 C4 14.01 4 13.02 4 12 C2.68 12 1.36 12 0 12 C-0.5625 10.0625 -0.5625 10.0625 -1 8 C-0.67 7.67 -0.34 7.34 0 7 C0.04092937 4.66702567 0.04241723 2.33294775 0 0 Z " fill="#8C3AD8" transform="translate(110,348)"/>
<path d="M0 0 C0.33 0 0.66 0 1 0 C1.25394531 1.11117187 1.50789062 2.22234375 1.76953125 3.3671875 C3.60510344 11.32580631 5.47806461 19.22403255 8 27 C6.68 26.67 5.36 26.34 4 26 C2.61470179 20.54538831 1.7603057 15.63281599 2 10 C1.34 10 0.68 10 0 10 C0 6.7 0 3.4 0 0 Z " fill="#1CB2B4" transform="translate(202,199)"/>
<path d="M0 0 C2 1 2 1 3.1875 3.75 C4.02215998 7.08863991 4.15947709 8.78914036 3 12 C2.01 12.66 1.02 13.32 0 14 C-0.66 14.99 -1.32 15.98 -2 17 C-2.25287193 10.93107371 -1.69832609 5.83799592 0 0 Z " fill="#9737E7" transform="translate(128,301)"/>
<path d="M0 0 C2.64719527 3.97079291 3.49821198 7.97815047 4.6875 12.5625 C4.92533203 13.43841797 5.16316406 14.31433594 5.40820312 15.21679688 C5.62798828 16.05404297 5.84777344 16.89128906 6.07421875 17.75390625 C6.27619873 18.52033447 6.47817871 19.2867627 6.6862793 20.07641602 C7 22 7 22 6 24 C3 22 3 22 2.3840332 20.18408203 C2.27406006 19.46591309 2.16408691 18.74774414 2.05078125 18.0078125 C1.92509766 17.22019531 1.79941406 16.43257813 1.66992188 15.62109375 C1.55197266 14.79738281 1.43402344 13.97367187 1.3125 13.125 C1.18294922 12.30902344 1.05339844 11.49304688 0.91992188 10.65234375 C0.35993617 7.01984388 0 3.69373503 0 0 Z " fill="#863CC4" transform="translate(137,325)"/>
<path d="M0 0 C0.66 0.33 1.32 0.66 2 1 C1.06692579 2.44037669 0.12834923 3.87718985 -0.8125 5.3125 C-1.33457031 6.11300781 -1.85664062 6.91351563 -2.39453125 7.73828125 C-3.81544231 9.74000268 -5.12924529 11.41626519 -7 13 C-7.66 13 -8.32 13 -9 13 C-9 13.66 -9 14.32 -9 15 C-9.99 14.67 -10.98 14.34 -12 14 C-10.5645497 12.22750476 -9.12656197 10.45706424 -7.6875 8.6875 C-6.88699219 7.70136719 -6.08648438 6.71523438 -5.26171875 5.69921875 C-3.57311644 3.68397834 -1.90369301 1.80511991 0 0 Z " fill="#8D3BD2" transform="translate(542,331)"/>
<path d="M0 0 C1.32 0 2.64 0 4 0 C4 0.66 4 1.32 4 2 C5.98 2 7.96 2 10 2 C10.33 2.66 10.66 3.32 11 4 C12.32 4 13.64 4 15 4 C15 4.66 15 5.32 15 6 C15.66 6 16.32 6 17 6 C17.66 7.65 18.32 9.3 19 11 C15.3029088 9.59510534 11.85252297 7.94496078 8.375 6.0625 C7.43398438 5.55847656 6.49296875 5.05445312 5.5234375 4.53515625 C3.30471447 3.18537583 1.71428585 1.92713342 0 0 Z " fill="#1CAFAD" transform="translate(339,95)"/>
<path d="M0 0 C0.99 0.33 1.98 0.66 3 1 C-5.30722892 12.23795181 -5.30722892 12.23795181 -11 14 C-11.66 13.67 -12.32 13.34 -13 13 C-12.56429688 12.64808594 -12.12859375 12.29617188 -11.6796875 11.93359375 C-7.29767503 8.30088644 -3.57436783 4.42540779 0 0 Z " fill="#150F1F" transform="translate(508,447)"/>
<path d="M0 0 C0.66 0.33 1.32 0.66 2 1 C1.50886719 1.35707031 1.01773437 1.71414063 0.51171875 2.08203125 C-1.71372806 4.90553095 -1.29250922 7.15218954 -1.1875 10.6875 C-1.16042969 11.86699219 -1.13335937 13.04648437 -1.10546875 14.26171875 C-1.07066406 15.16535156 -1.03585937 16.06898438 -1 17 C-5.875 13.25 -5.875 13.25 -7 11 C-6.328125 9.16015625 -6.328125 9.16015625 -5.25 7.0625 C-4.90453125 6.37285156 -4.5590625 5.68320312 -4.203125 4.97265625 C-2.99605034 2.99352409 -1.70292617 1.56101565 0 0 Z " fill="#8C39D2" transform="translate(478,288)"/>
<path d="M0 0 C0.33 1.32 0.66 2.64 1 4 C0.34 4 -0.32 4 -1 4 C-0.938125 4.78375 -0.87625 5.5675 -0.8125 6.375 C-0.874375 7.24125 -0.93625 8.1075 -1 9 C-1.99 9.66 -2.98 10.32 -4 11 C-4.144375 11.66 -4.28875 12.32 -4.4375 13 C-5 15 -5 15 -7.0625 16.25 C-7.701875 16.4975 -8.34125 16.745 -9 17 C-9 12.44089453 -8.25418363 11.49494642 -5.625 7.9375 C-4.68527344 6.65166016 -4.68527344 6.65166016 -3.7265625 5.33984375 C-3.15679687 4.56769531 -2.58703125 3.79554688 -2 3 C-1.34 2.01 -0.68 1.02 0 0 Z " fill="#0F181A" transform="translate(423,264)"/>
<path d="M0 0 C3.875 1.75 3.875 1.75 5 4 C5.08342159 5.44848582 5.10732861 6.90070869 5.09765625 8.3515625 C5.09443359 9.20234375 5.09121094 10.053125 5.08789062 10.9296875 C5.07951172 11.81914063 5.07113281 12.70859375 5.0625 13.625 C5.05798828 14.5221875 5.05347656 15.419375 5.04882812 16.34375 C5.03702591 18.56256648 5.02056155 20.78125018 5 23 C4.67 23 4.34 23 4 23 C4 17.72 4 12.44 4 7 C2.68 7.33 1.36 7.66 0 8 C0 5.36 0 2.72 0 0 Z " fill="#9D1FC5" transform="translate(526,532)"/>
<path d="M0 0 C2.02350324 3.03525486 2.32124018 4.19426202 2.625 7.6875 C2.69976562 8.49574219 2.77453125 9.30398438 2.8515625 10.13671875 C2.90054687 10.75160156 2.94953125 11.36648438 3 12 C3.33 12 3.66 12 4 12 C4.34833144 16.87664009 3.41685712 19.77050005 1 24 C-0.44712362 21.70162719 -1.11360059 20.5598886 -0.5625 17.84375 C0.14292337 14.27744296 0.10749374 10.80430442 0.0625 7.1875 C0.05798828 6.49462891 0.05347656 5.80175781 0.04882812 5.08789062 C0.03713156 3.39188932 0.01919924 1.69593297 0 0 Z " fill="#702CB9" transform="translate(424,435)"/>
<path d="M0 0 C0.66 0.33 1.32 0.66 2 1 C0.59601721 5.10110762 -1.37087038 7.98089159 -4.125 11.3125 C-4.84945313 12.19550781 -5.57390625 13.07851563 -6.3203125 13.98828125 C-7.15175781 14.98408203 -7.15175781 14.98408203 -8 16 C-9 13 -9 13 -7.85546875 10.51953125 C-7.30503906 9.62621094 -6.75460937 8.73289062 -6.1875 7.8125 C-5.37345703 6.46091797 -5.37345703 6.46091797 -4.54296875 5.08203125 C-4.03378906 4.39496094 -3.52460937 3.70789063 -3 3 C-2.34 3 -1.68 3 -1 3 C-0.67 2.01 -0.34 1.02 0 0 Z " fill="#8438D7" transform="translate(516,432)"/>
<path d="M0 0 C0.33 0 0.66 0 1 0 C1.50537432 5.30643041 0.30655751 7.86680312 -3 12 C-5.25 13.875 -5.25 13.875 -7 15 C-7.93065133 12.39417629 -8.14917407 11.35801776 -7.0625 8.75 C-6.711875 8.1725 -6.36125 7.595 -6 7 C-4.68 7.33 -3.36 7.66 -2 8 C-2 7.01 -2 6.02 -2 5 C-1.34 5 -0.68 5 0 5 C0 3.35 0 1.7 0 0 Z " fill="#7F37C8" transform="translate(564,379)"/>
<path d="M0 0 C7.625 0.875 7.625 0.875 11 2 C11 1.34 11 0.68 11 0 C12.32 0 13.64 0 15 0 C15 0.66 15 1.32 15 2 C14.01 2.495 14.01 2.495 13 3 C14.98 3.99 16.96 4.98 19 6 C15.85681547 7.57159226 13.07066611 6.04018399 9.875 5.0625 C9.21628906 4.86720703 8.55757813 4.67191406 7.87890625 4.47070312 C6.25066448 3.98695014 4.62506818 3.49430925 3 3 C3 2.34 3 1.68 3 1 C2.01 0.67 1.02 0.34 0 0 Z " fill="#C6B738" transform="translate(306,149)"/>
<path d="M0 0 C0.76347254 2.48128576 0.9921793 4.37539357 0.9375 7 C1.00015007 10.00720349 1.4479829 11.47797221 3 14 C2.34 14 1.68 14 1 14 C1 14.99 1 15.98 1 17 C1.66 17 2.32 17 3 17 C2.67 17.99 2.34 18.98 2 20 C1.01 20 0.02 20 -1 20 C-1.02696009 17.2291017 -1.04681952 14.4584655 -1.0625 11.6875 C-1.07087891 10.90181641 -1.07925781 10.11613281 -1.08789062 9.30664062 C-1.09111328 8.54931641 -1.09433594 7.79199219 -1.09765625 7.01171875 C-1.10289307 6.31522217 -1.10812988 5.61872559 -1.11352539 4.90112305 C-1 3 -1 3 0 0 Z " fill="#A42CC2" transform="translate(71,535)"/>
<path d="M0 0 C3.10085802 0.0130015 6.0021781 0.1722828 9 1 C11.125 3.875 11.125 3.875 12 7 C11.67 7.99 11.34 8.98 11 10 C9.16375669 8.52444734 7.3310715 7.04446569 5.5 5.5625 C4.4790625 4.73878906 3.458125 3.91507812 2.40625 3.06640625 C1.6121875 2.38449219 0.818125 1.70257813 0 1 C0 0.67 0 0.34 0 0 Z " fill="#8134CF" transform="translate(98,453)"/>
<path d="M0 0 C2.9719385 1.12451727 5.33440687 2.22293791 8 4 C9.65549531 4.38499891 11.3222433 4.72793135 13 5 C12.67 5.99 12.34 6.98 12 8 C9.52987124 9.14684549 8.11213066 9.02187915 5.4375 8.5 C1.8782564 6.30969624 1.37061401 3.89542931 0 0 Z " fill="#903DE0" transform="translate(152,376)"/>
<path d="M0 0 C2.09350689 3.4019487 2.17942163 6.05272412 2 10 C1.01 10 0.02 10 -1 10 C-1 10.66 -1 11.32 -1 12 C-1.66 11.67 -2.32 11.34 -3 11 C-2.690625 10.29875 -2.38125 9.5975 -2.0625 8.875 C-0.96697322 5.91063343 -0.43577008 3.12301892 0 0 Z M-4 7 C-2.768606 9.46278801 -2.92840804 11.2795055 -3 14 C-3.99 14 -4.98 14 -6 14 C-6.33 13.34 -6.66 12.68 -7 12 C-5.5625 9.375 -5.5625 9.375 -4 7 Z " fill="#8634DC" transform="translate(428,447)"/>
<path d="M0 0 C2.69769338 3.29898648 4.45637864 6.7678434 6.25 10.625 C6.79140625 11.77226562 7.3328125 12.91953125 7.890625 14.1015625 C8.25671875 15.05804688 8.6228125 16.01453125 9 17 C8.67 17.66 8.34 18.32 8 19 C7.34 19 6.68 19 6 19 C5.01 16.03 4.02 13.06 3 10 C2.67 10 2.34 10 2 10 C2 8.35 2 6.7 2 5 C1.01 4.67 0.02 4.34 -1 4 C-0.67 2.68 -0.34 1.36 0 0 Z " fill="#843EC3" transform="translate(96,317)"/>
<path d="M0 0 C11.52164009 -0.3690205 11.52164009 -0.3690205 17 2 C17 2.33 17 2.66 17 3 C7.00881057 4.41487432 7.00881057 4.41487432 3 3 C1.97334787 2.02738219 0.96907931 1.02999286 0 0 Z M6 4 C6.66 4 7.32 4 8 4 C7.67 4.99 7.34 5.98 7 7 C6.67 6.01 6.34 5.02 6 4 Z " fill="#D9C932" transform="translate(298,118)"/>
<path d="M0 0 C1.98 0.99 1.98 0.99 4 2 C4 2.66 4 3.32 4 4 C4.66 4 5.32 4 6 4 C8.15305957 7.85756507 9.39253254 10.55129785 9 15 C7.68 14.67 6.36 14.34 5 14 C5.28875 13.319375 5.5775 12.63875 5.875 11.9375 C6.02680393 8.37010762 5.36848716 7.89390951 3.0625 5.3125 C2.49660156 4.73113281 1.93070312 4.14976562 1.34765625 3.55078125 C0 2 0 2 0 0 Z " fill="#883CD2" transform="translate(74,381)"/>
<path d="M0 0 C0.99 0 1.98 0 3 0 C2.90460937 0.84304688 2.80921875 1.68609375 2.7109375 2.5546875 C2.60007812 3.65039062 2.48921875 4.74609375 2.375 5.875 C2.25898437 6.96554687 2.14296875 8.05609375 2.0234375 9.1796875 C2.01570313 10.11039062 2.00796875 11.04109375 2 12 C2.66 12.66 3.32 13.32 4 14 C3.67 14.99 3.34 15.98 3 17 C1.35 15.02 -0.3 13.04 -2 11 C-1.34 10.34 -0.68 9.68 0 9 C0.24253813 6.78927023 0.24253813 6.78927023 0.125 4.375 C0.10695312 3.55773437 0.08890625 2.74046875 0.0703125 1.8984375 C0.04710937 1.27195312 0.02390625 0.64546875 0 0 Z " fill="#8D3ADE" transform="translate(40,378)"/>
<path d="M0 0 C0.33 0.66 0.66 1.32 1 2 C0.22265625 3.9453125 0.22265625 3.9453125 -0.9375 6.125 C-1.31777344 6.84945313 -1.69804687 7.57390625 -2.08984375 8.3203125 C-2.54037109 9.15175781 -2.54037109 9.15175781 -3 10 C-3.66 10 -4.32 10 -5 10 C-5.66 11.65 -6.32 13.3 -7 15 C-7.66 14.01 -8.32 13.02 -9 12 C-6.03 8.04 -3.06 4.08 0 0 Z " fill="#111D1F" transform="translate(394,304)"/>
<path d="M0 0 C0.66 0 1.32 0 2 0 C2 0.66 2 1.32 2 2 C2.66 2 3.32 2 4 2 C5.62109375 3.609375 5.62109375 3.609375 7.4375 5.75 C8.33275391 6.79414062 8.33275391 6.79414062 9.24609375 7.859375 C9.82488281 8.56578125 10.40367187 9.2721875 11 10 C11.88365234 11.02867188 11.88365234 11.02867188 12.78515625 12.078125 C13.18605469 12.71234375 13.58695312 13.3465625 14 14 C13.67 14.99 13.34 15.98 13 17 C11.20327652 14.92084841 9.41257473 12.83699349 7.625 10.75 C7.11710937 10.16347656 6.60921875 9.57695313 6.0859375 8.97265625 C3.64854442 6.11834067 1.44300952 3.5119027 0 0 Z " fill="#1BCBCB" transform="translate(367,112)"/>
<path d="M0 0 C8.00180661 -0.54249536 14.46595398 1.39161312 22 4 C22 4.33 22 4.66 22 5 C20.24929483 4.88529863 18.49942464 4.75780972 16.75 4.625 C15.77546875 4.55539063 14.8009375 4.48578125 13.796875 4.4140625 C11.0642125 4.00950632 9.40524126 3.28279534 7 2 C4.67504723 1.61250787 2.34148732 1.27017161 0 1 C0 0.67 0 0.34 0 0 Z " fill="#19D5D4" transform="translate(322,42)"/>
<path d="M0 0 C2.81870287 2.81870287 2.7303841 5.09056945 3 9 C2.0625 11.4375 2.0625 11.4375 1 13 C0.34 11.68 -0.32 10.36 -1 9 C-1.99 9.495 -1.99 9.495 -3 10 C-2.01 6.7 -1.02 3.4 0 0 Z " fill="#130E1C" transform="translate(200,351)"/>
<path d="M0 0 C2.475 0.495 2.475 0.495 5 1 C4.71872579 2.48117801 4.42466268 3.95993249 4.125 5.4375 C3.96257812 6.26121094 3.80015625 7.08492188 3.6328125 7.93359375 C3.42398437 8.61550781 3.21515625 9.29742187 3 10 C2.01 10.495 2.01 10.495 1 11 C0.67 7.37 0.34 3.74 0 0 Z " fill="#9237E6" transform="translate(456,354)"/>
<path d="M0 0 C2.26001481 7.34504813 0.28714065 12.39636923 -3 19 C-4.28339322 15.14982035 -3.44990097 12.22453786 -2.625 8.375 C-2.48578125 7.68148438 -2.3465625 6.98796875 -2.203125 6.2734375 C-1.14043257 1.14043257 -1.14043257 1.14043257 0 0 Z " fill="#983AE6" transform="translate(472,300)"/>
<path d="M0 0 C5.61 0 11.22 0 17 0 C17 0.66 17 1.32 17 2 C15.58366664 2.16947579 14.16691467 2.33545507 12.75 2.5 C11.56664062 2.63921875 11.56664062 2.63921875 10.359375 2.78125 C5.30834734 3.2495572 4.26915868 3.20186901 0 0 Z " fill="#981DCC" transform="translate(225,532)"/>
<path d="M0 0 C0.66 0.99 1.32 1.98 2 3 C0.69013727 4.16962686 -0.6229626 5.33562944 -1.9375 6.5 C-2.66839844 7.1496875 -3.39929688 7.799375 -4.15234375 8.46875 C-6 10 -6 10 -7 10 C-7.20086443 6.28400809 -7.1519437 5.22791555 -5 2 C-2.9375 1.375 -2.9375 1.375 -1 1 C-0.67 0.67 -0.34 0.34 0 0 Z " fill="#8135D3" transform="translate(501,451)"/>
<path d="M0 0 C3.55707721 -0.47427696 5.60179982 -0.18178704 8.875 1.3125 C9.926875 2.1478125 9.926875 2.1478125 11 3 C11 3.99 11 4.98 11 6 C8.03824877 5.38722388 6.61941217 4.74627478 4 3 C0.87478167 2.83300768 0.87478167 2.83300768 -2 3 C-1.34 2.01 -0.68 1.02 0 0 Z " fill="#893DC9" transform="translate(50,330)"/>
<path d="M0 0 C-1.98 0.33 -3.96 0.66 -6 1 C-6 1.66 -6 2.32 -6 3 C-6.99 3 -7.98 3 -9 3 C-9 3.66 -9 4.32 -9 5 C-12.21451269 6.60725635 -15.43612536 6.05748185 -19 6 C-16.07326863 4.04884575 -13.2870104 2.70354342 -10.0625 1.3125 C-9.02222656 0.85488281 -7.98195312 0.39726563 -6.91015625 -0.07421875 C-3.97978311 -1.00643141 -2.80276633 -1.11435288 0 0 Z " fill="#1BB1B0" transform="translate(255,47)"/>
<path d="M0 0 C1.0625 1.8125 1.0625 1.8125 2 4 C1.67 4.99 1.34 5.98 1 7 C2.65 7 4.3 7 6 7 C5.01 8.485 5.01 8.485 4 10 C2.125 9.6875 2.125 9.6875 0 9 C-2 6 -2 6 -1.6875 3.375 C-1 1 -1 1 0 0 Z " fill="#1A1129" transform="translate(522,388)"/>
<path d="M0 0 C2.475 0.495 2.475 0.495 5 1 C5.33 1.99 5.66 2.98 6 4 C5.34 4 4.68 4 4 4 C4 5.98 4 7.96 4 10 C4.66 10 5.32 10 6 10 C6 10.66 6 11.32 6 12 C4.0625 11.5 4.0625 11.5 2 10 C1.49488506 7.94470473 1.31157515 5.9856252 1.17578125 3.875 C1.10558103 1.90968315 1.10558103 1.90968315 0 0 Z " fill="#8D35E7" transform="translate(556,375)"/>
<path d="M0 0 C0.99 0 1.98 0 3 0 C2.01 4.62 1.02 9.24 0 14 C-1.96811006 10.06377988 -2.24057392 9.3439424 -1.6875 5.3125 C-1.58824219 4.52488281 -1.48898437 3.73726563 -1.38671875 2.92578125 C-1 1 -1 1 0 0 Z " fill="#8E3ED4" transform="translate(479,343)"/>
<path d="M0 0 C0.66 0.66 1.32 1.32 2 2 C0.74054645 3.67528263 -0.53293682 5.34002614 -1.8125 7 C-2.87404297 8.3921875 -2.87404297 8.3921875 -3.95703125 9.8125 C-4.63121094 10.534375 -5.30539062 11.25625 -6 12 C-6.99 12 -7.98 12 -9 12 C-7.625 9.5 -7.625 9.5 -6 7 C-5.34 7 -4.68 7 -4 7 C-3.34 5.35 -2.68 3.7 -2 2 C-1.34 2 -0.68 2 0 2 C0 1.34 0 0.68 0 0 Z " fill="#12A0B8" transform="translate(314,404)"/>
<path d="M0 0 C0.66 0.33 1.32 0.66 2 1 C-1.75 6.75 -1.75 6.75 -4 9 C-6.625 9.125 -6.625 9.125 -9 9 C-6 6 -3 3 0 0 Z " fill="#863AD2" transform="translate(544,381)"/>
<path d="M0 0 C1.51953125 1.33203125 1.51953125 1.33203125 3 3 C2.6875 5.6875 2.6875 5.6875 2 8 C2.99 7.67 3.98 7.34 5 7 C4.67 8.32 4.34 9.64 4 11 C3.01 11 2.02 11 1 11 C-0.20272819 8.59454362 -0.10071472 7.05003047 -0.0625 4.375 C-0.05347656 3.55773437 -0.04445313 2.74046875 -0.03515625 1.8984375 C-0.02355469 1.27195312 -0.01195313 0.64546875 0 0 Z " fill="#9434E9" transform="translate(72,303)"/>
<path d="M0 0 C0.78375 0.04125 1.5675 0.0825 2.375 0.125 C-0.625 2.125 -0.625 2.125 -2.625 2.125 C-2.8725 3.053125 -3.12 3.98125 -3.375 4.9375 C-4.68954245 8.28958325 -5.60463384 9.3127803 -8.625 11.125 C-8.625 9.475 -8.625 7.825 -8.625 6.125 C-7.965 6.125 -7.305 6.125 -6.625 6.125 C-6.33625 5.50625 -6.0475 4.8875 -5.75 4.25 C-4.16515329 1.25640067 -3.47581022 0.16551477 0 0 Z " fill="#9939EA" transform="translate(117.625,287.875)"/>
<path d="M0 0 C2.00993705 3.01490557 2.72623341 5.2149927 3.625 8.6875 C3.88539063 9.68136719 4.14578125 10.67523438 4.4140625 11.69921875 C4.60742188 12.45847656 4.80078125 13.21773437 5 14 C3.68 14.33 2.36 14.66 1 15 C1 14.34 1 13.68 1 13 C1.66 13 2.32 13 3 13 C3 12.01 3 11.02 3 10 C2.34 10 1.68 10 1 10 C1 10.66 1 11.32 1 12 C0.34 12 -0.32 12 -1 12 C-0.73958333 10.046875 -0.47916667 8.09375 -0.21875 6.140625 C0.06777357 3.69541605 0.06777357 3.69541605 0 0 Z " fill="#0D2F2F" transform="translate(159,224)"/>
<path d="M0 0 C1.25733598 3.77200794 1.03366148 6.25297715 0 10 C-0.66 10 -1.32 10 -2 10 C-2.33 12.97 -2.66 15.94 -3 19 C-3.33 19 -3.66 19 -4 19 C-4.47266289 11.67372525 -3.09866202 6.62615673 0 0 Z " fill="#E8D542" transform="translate(249,207)"/>
<path d="M0 0 C0.33 0.66 0.66 1.32 1 2 C3.02463255 2.65213292 3.02463255 2.65213292 5 3 C4.979375 4.03125 4.95875 5.0625 4.9375 6.125 C4.99276661 9.55152969 5.34550715 12.64572414 6 16 C3.63224279 13.63224279 3.00103504 11.70288662 1.875 8.5625 C1.52179688 7.59441406 1.16859375 6.62632812 0.8046875 5.62890625 C0 3 0 3 0 0 Z " fill="#18D2D1" transform="translate(391,146)"/>
<path d="M0 0 C2.3773161 2.3773161 2.67028521 3.70285207 3 7 C2.34 7.66 1.68 8.32 1 9 C-1.0625 8.8125 -1.0625 8.8125 -3 8 C-3.33 7.01 -3.66 6.02 -4 5 C-3.01 4.67 -2.02 4.34 -1 4 C-0.26676204 1.98491642 -0.26676204 1.98491642 0 0 Z " fill="#201230" transform="translate(96,366)"/>
<path d="M0 0 C0.33 0 0.66 0 1 0 C1.05395478 1.62463842 1.09277195 3.24978541 1.125 4.875 C1.14820312 5.77992188 1.17140625 6.68484375 1.1953125 7.6171875 C1 10 1 10 -1 12 C-4.125 12.125 -4.125 12.125 -7 12 C-3.25 9 -3.25 9 -1 9 C-1.020625 7.700625 -1.04125 6.40125 -1.0625 5.0625 C-1.08399454 3.70834367 -1.07148199 2.35243917 -1 1 C-0.67 0.67 -0.34 0.34 0 0 Z " fill="#973DE5" transform="translate(124,352)"/>
<path d="M0 0 C0.33 0 0.66 0 1 0 C1.08107583 1.93681161 1.13922475 3.8745934 1.1875 5.8125 C1.22230469 6.89144531 1.25710938 7.97039062 1.29296875 9.08203125 C1 12 1 12 -0.51171875 13.88671875 C-1.00285156 14.25410156 -1.49398437 14.62148438 -2 15 C-2.99 14.67 -3.98 14.34 -5 14 C-4.360625 12.989375 -3.72125 11.97875 -3.0625 10.9375 C-0.93151044 7.24780076 -0.34460387 4.22139745 0 0 Z " fill="#150F1E" transform="translate(555,337)"/>
<path d="M0 0 C0.33 0 0.66 0 1 0 C0.38487182 5.00890086 -0.2717552 10.00632136 -1 15 C-2.32 15.33 -3.64 15.66 -5 16 C-4.80664062 15.43152344 -4.61328125 14.86304688 -4.4140625 14.27734375 C-2.81863577 9.54635062 -1.33099414 4.81205575 0 0 Z " fill="#1BC2C5" transform="translate(395,211)"/>
<path d="M0 0 C0.99 0.33 1.98 0.66 3 1 C2.236875 1.9075 1.47375 2.815 0.6875 3.75 C-1.28483107 6.114556 -3.18262034 8.51305942 -5 11 C-5.875 8.3125 -5.875 8.3125 -6 5 C-4.22557447 2.64203856 -2.56330557 1.62671315 0 0 Z " fill="#8032CC" transform="translate(491,461)"/>
<path d="M0 0 C0.99 0 1.98 0 3 0 C1.68938409 4.23429756 0.05643741 8.07407404 -2 12 C-4 9 -4 9 -4 7 C-3.34 6.67 -2.68 6.34 -2 6 C-1.27306096 4.02111039 -0.60183749 2.02045442 0 0 Z " fill="#8A3ED2" transform="translate(505,359)"/>
<path d="M0 0 C0.33 0.66 0.66 1.32 1 2 C0.06692579 3.44037669 -0.87165077 4.87718985 -1.8125 6.3125 C-2.33457031 7.11300781 -2.85664062 7.91351563 -3.39453125 8.73828125 C-4.80389849 10.7237402 -6.22096657 12.3491852 -8 14 C-8.66 13.67 -9.32 13.34 -10 13 C-5.05 6.565 -5.05 6.565 0 0 Z " fill="#8D3ED0" transform="translate(529,346)"/>
<path d="M0 0 C-1.59910868 1.00806851 -3.20448262 2.00620385 -4.8125 3 C-6.15248047 3.8353125 -6.15248047 3.8353125 -7.51953125 4.6875 C-10 6 -10 6 -13 6 C-13 5.34 -13 4.68 -13 4 C-12.01 4 -11.02 4 -10 4 C-10 3.01 -10 2.02 -10 1 C-8.68 1.33 -7.36 1.66 -6 2 C-6 1.34 -6 0.68 -6 0 C-3.50907189 -1.24546405 -2.58919267 -0.7767578 0 0 Z " fill="#15CECF" transform="translate(258,97)"/>
<path d="M0 0 C4.39642348 0.5024484 6.7948982 1.97295941 10 5 C10.33 5.99 10.66 6.98 11 8 C7.24026115 8 6.54322371 7.03457593 3.8125 4.5625 C3.09707031 3.92441406 2.38164063 3.28632813 1.64453125 2.62890625 C1.10183594 2.09136719 0.55914062 1.55382812 0 1 C0 0.67 0 0.34 0 0 Z " fill="#8539D3" transform="translate(51,401)"/>
<path d="M0 0 C1 2 1 2 -0.125 5.5625 C-2 9 -2 9 -4.6875 9.9375 C-5.450625 9.958125 -6.21375 9.97875 -7 10 C-4.75421558 6.59260295 -2.48862878 3.23521742 0 0 Z " fill="#101D20" transform="translate(332,384)"/>
<path d="M0 0 C2.64 0 5.28 0 8 0 C8 0.99 8 1.98 8 3 C5.69 3.33 3.38 3.66 1 4 C0.67 2.68 0.34 1.36 0 0 Z " fill="#1E1329" transform="translate(435,377)"/>
<path d="M0 0 C3.40424844 1.13474948 4.21653709 1.96811304 6 5 C5.67 5.99 5.34 6.98 5 8 C4.01 7.34 3.02 6.68 2 6 C1.01 6 0.02 6 -1 6 C-0.67 4.02 -0.34 2.04 0 0 Z " fill="#903ED9" transform="translate(62,336)"/>
<path d="M0 0 C3.32532111 2.69192661 4.52454943 6.06546515 6 10 C6 10.99 6 11.98 6 13 C3 12 3 12 2.05078125 10.29296875 C1.80714844 9.59816406 1.56351562 8.90335937 1.3125 8.1875 C1.06113281 7.50042969 0.80976562 6.81335938 0.55078125 6.10546875 C0 4 0 4 0 0 Z " fill="#883DC6" transform="translate(90,304)"/>
<path d="M0 0 C2.40672398 2.40672398 2.79132175 4.11378549 3.6875 7.375 C4.09548828 8.80972656 4.09548828 8.80972656 4.51171875 10.2734375 C4.9947433 12.97064661 4.9004538 14.44972144 4 17 C2.05662363 14.08493545 1.72325333 13.17028308 1.4375 9.875 C1.43313101 6.22536034 1.43313101 6.22536034 0 5 C-0.04063832 3.33382885 -0.042721 1.66611905 0 0 Z " fill="#1EA9A9" transform="translate(440,143)"/>
<path d="M0 0 C0 0.66 0 1.32 0 2 C-5.28 2.66 -10.56 3.32 -16 4 C-10.96003362 0.64002241 -6.00290323 -0.29282455 0 0 Z " fill="#1EBDBC" transform="translate(272,42)"/>
<path d="M0 0 C0.99 0 1.98 0 3 0 C2.34 2.64 1.68 5.28 1 8 C0.34 8 -0.32 8 -1 8 C-1.33 8.99 -1.66 9.98 -2 11 C-1.85892253 9.54119891 -1.71197585 8.08296449 -1.5625 6.625 C-1.48128906 5.81289063 -1.40007812 5.00078125 -1.31640625 4.1640625 C-1 2 -1 2 0 0 Z " fill="#8E3AD8" transform="translate(494,338)"/>
<path d="M0 0 C0.99 0.33 1.98 0.66 3 1 C2.401875 1.2475 1.80375 1.495 1.1875 1.75 C-1.91934279 3.52533874 -3.4211829 5.84236579 -5 9 C-7.5625 9.625 -7.5625 9.625 -10 10 C-3.25842697 1.79775281 -3.25842697 1.79775281 0 0 Z " fill="#D6C740" transform="translate(260,197)"/>
<path d="M0 0 C0.66 0.66 1.32 1.32 2 2 C4.32275177 2.40047444 6.65739357 2.7397104 9 3 C8.67 3.66 8.34 4.32 8 5 C1.6 5.49230769 1.6 5.49230769 -1.4375 3 C-1.953125 2.34 -2.46875 1.68 -3 1 C-2.01 0.67 -1.02 0.34 0 0 Z " fill="#1998AF" transform="translate(296,414)"/>
<path d="M0 0 C0.66 1.32 1.32 2.64 2 4 C-0.3125 6.0625 -0.3125 6.0625 -3 8 C-3.99 7.67 -4.98 7.34 -6 7 C-4.02 4.69 -2.04 2.38 0 0 Z " fill="#0E1E22" transform="translate(375,329)"/>
<path d="M0 0 C-2.36292656 2.52588702 -3.66462511 3.88820837 -7 5 C-7.66 3.68 -8.32 2.36 -9 1 C-5.64919071 -1.10976881 -3.77897651 -1.0497157 0 0 Z " fill="#E7CB37" transform="translate(294,240)"/>
<path d="M0 0 C-1.28299758 2.86207152 -2.530636 5.0245088 -5 7 C-5.99 7 -6.98 7 -8 7 C-6.13932792 2.84926997 -4.83061881 0 0 0 Z " fill="#14CDCB" transform="translate(202,78)"/>
<path d="M0 0 C2.0625 2.3125 2.0625 2.3125 4 5 C3.67 5.99 3.34 6.98 3 8 C2.01 8 1.02 8 0 8 C-2 5 -2 5 -3 2 C-2.01 1.34 -1.02 0.68 0 0 Z " fill="#8837DC" transform="translate(424,425)"/>
<path d="M0 0 C0.6875 1.75 0.6875 1.75 1 4 C-0.0625 6.1875 -0.0625 6.1875 -2 8 C-5.1875 8.75 -5.1875 8.75 -8 9 C-6.8553125 7.88625 -6.8553125 7.88625 -5.6875 6.75 C-3.5606298 4.5736677 -1.7440044 2.47832204 0 0 Z " fill="#0E1A1D" transform="translate(312,410)"/>
<path d="M0 0 C0.66 0 1.32 0 2 0 C1.52794881 4.24846075 -0.88877522 6.26819288 -4 9 C-4.66 9 -5.32 9 -6 9 C-5.34 7.35 -4.68 5.7 -4 4 C-3.01 4 -2.02 4 -1 4 C-0.67 2.68 -0.34 1.36 0 0 Z " fill="#8A39DE" transform="translate(540,405)"/>
<path d="M0 0 C2.38255267 1.94936128 3.03741412 3.11691913 4 6.125 C4.33 7.07375 4.66 8.0225 5 9 C5.99 9.33 6.98 9.66 8 10 C7.67 10.99 7.34 11.98 7 13 C3.77477676 10.84985117 3.26937837 9.93845623 1.8125 6.5 C1.46832031 5.7059375 1.12414062 4.911875 0.76953125 4.09375 C0 2 0 2 0 0 Z " fill="#9642E2" transform="translate(94,360)"/>
<path d="M0 0 C1.65322266 0.01740234 1.65322266 0.01740234 3.33984375 0.03515625 C4.99693359 0.04869141 4.99693359 0.04869141 6.6875 0.0625 C7.54214844 0.07410156 8.39679688 0.08570313 9.27734375 0.09765625 C9.27734375 0.42765625 9.27734375 0.75765625 9.27734375 1.09765625 C7.62734375 1.09765625 5.97734375 1.09765625 4.27734375 1.09765625 C4.27734375 1.75765625 4.27734375 2.41765625 4.27734375 3.09765625 C1.40234375 3.22265625 1.40234375 3.22265625 -1.72265625 3.09765625 C-2.38265625 2.43765625 -3.04265625 1.77765625 -3.72265625 1.09765625 C-2.72265625 0.09765625 -2.72265625 0.09765625 0 0 Z " fill="#07CFCC" transform="translate(287.72265625,40.90234375)"/>
<path d="M0 0 C0.66 0 1.32 0 2 0 C2.33 0.66 2.66 1.32 3 2 C3.66 1.67 4.32 1.34 5 1 C7 3 7 3 8 5 C7.34 5 6.68 5 6 5 C6 5.66 6 6.32 6 7 C3.00675737 5.9024777 2.15389099 5.32317108 0.75 2.375 C0.5025 1.59125 0.255 0.8075 0 0 Z " fill="#903DE1" transform="translate(69,374)"/>
<path d="M0 0 C0.721875 0.804375 1.44375 1.60875 2.1875 2.4375 C5.02515689 5.02292072 6.27166147 5.68042813 10 6 C10 6.66 10 7.32 10 8 C6.38102827 8.32899743 4.60496861 8.44576634 1.625 6.25 C0 4 0 4 0 0 Z " fill="#873CCD" transform="translate(88,368)"/>
<path d="M0 0 C0.33 0 0.66 0 1 0 C0.96519531 0.77085937 0.93039062 1.54171875 0.89453125 2.3359375 C0.86746094 3.33882813 0.84039062 4.34171875 0.8125 5.375 C0.77769531 6.37273437 0.74289062 7.37046875 0.70703125 8.3984375 C0.85205078 9.68621094 0.85205078 9.68621094 1 11 C1.99 11.66 2.98 12.32 4 13 C2.35 13 0.7 13 -1 13 C-2.51403812 8.15507803 -1.36602172 4.7408989 0 0 Z " fill="#1D0E2F" transform="translate(480,349)"/>
<path d="M0 0 C1.90318884 2.85478326 2.4619099 4.41941308 3.125 7.6875 C3.29257813 8.49574219 3.46015625 9.30398438 3.6328125 10.13671875 C3.75398438 10.75160156 3.87515625 11.36648438 4 12 C2.68 11.67 1.36 11.34 0 11 C0 7.33333333 0 3.66666667 0 0 Z " fill="#2D1842" transform="translate(111,317)"/>
<path d="M0 0 C1.1875 1.5 1.1875 1.5 2 4 C1.27101296 6.78824238 0.1843275 9.37665092 -1 12 C-3 9 -3 9 -2.625 6.3125 C-2.41875 5.549375 -2.2125 4.78625 -2 4 C-1.34 4 -0.68 4 0 4 C0 2.68 0 1.36 0 0 Z " fill="#19BEBE" transform="translate(208,144)"/>
<path d="M0 0 C1 3 1 3 0.0390625 5.04296875 C-0.42757812 5.75066406 -0.89421875 6.45835937 -1.375 7.1875 C-1.83648437 7.90292969 -2.29796875 8.61835938 -2.7734375 9.35546875 C-3.17820313 9.89816406 -3.58296875 10.44085938 -4 11 C-4.33 11 -4.66 11 -5 11 C-5 9.35 -5 7.7 -5 6 C-4.34 6 -3.68 6 -3 6 C-3 4.68 -3 3.36 -3 2 C-2.01 1.34 -1.02 0.68 0 0 Z " fill="#18C2C2" transform="translate(219,127)"/>
<path d="M0 0 C2.97 0.33 5.94 0.66 9 1 C8.67 2.32 8.34 3.64 8 5 C4.20411134 4.45773019 2.52788007 2.79872437 0 0 Z " fill="#09CFCC" transform="translate(320,42)"/>
<path d="M0 0 C1.75094115 2.62641172 2.45274638 4.10691211 3.1875 7.0625 C3.36667969 7.75472656 3.54585938 8.44695312 3.73046875 9.16015625 C4 11 4 11 3 13 C2.34 13 1.68 13 1 13 C0.67 8.71 0.34 4.42 0 0 Z " fill="#27163E" transform="translate(415,411)"/>
<path d="M0 0 C0.33 0.66 0.66 1.32 1 2 C-0.76227632 5.61730402 -2.64326421 7.80075931 -6 10 C-6.33 9.34 -6.66 8.68 -7 8 C-6.34 8 -5.68 8 -5 8 C-4.9175 7.4225 -4.835 6.845 -4.75 6.25 C-3.79468987 3.3840696 -2.21530827 2.0009236 0 0 Z " fill="#8639D0" transform="translate(448,374)"/>
<path d="M0 0 C0.66 0 1.32 0 2 0 C2.433125 1.11375 2.86625 2.2275 3.3125 3.375 C4.69911119 7.17512334 4.69911119 7.17512334 8 9 C6.02 9 4.04 9 2 9 C1.855625 8.2575 1.71125 7.515 1.5625 6.75 C1.09812508 4.47972261 0.58136431 2.24240521 0 0 Z " fill="#853AC9" transform="translate(112,354)"/>
<path d="M0 0 C1.32 1.32 2.64 2.64 4 4 C2.68 6.31 1.36 8.62 0 11 C-1.37432457 7.18243176 -0.67975039 3.92744671 0 0 Z " fill="#923EDC" transform="translate(510,344)"/>
<path d="M0 0 C2.96404505 2.80804268 5.44499019 5.18315774 7 9 C5.68 9 4.36 9 3 9 C0 2.25 0 2.25 0 0 Z " fill="#12282B" transform="translate(221,323)"/>
<path d="M0 0 C0.93045933 2.55144824 1.08564091 3.74006478 0.22265625 6.359375 C-0.16019531 7.14828125 -0.54304688 7.9371875 -0.9375 8.75 C-1.50791016 9.94882812 -1.50791016 9.94882812 -2.08984375 11.171875 C-2.39019531 11.77515625 -2.69054687 12.3784375 -3 13 C-3.33 13 -3.66 13 -4 13 C-4 10.69 -4 8.38 -4 6 C-3.34 6 -2.68 6 -2 6 C-2 5.01 -2 4.02 -2 3 C-1.34 3 -0.68 3 0 3 C0 2.01 0 1.02 0 0 Z " fill="#140E1C" transform="translate(502,317)"/>
<path d="M0 0 C0.99 0.33 1.98 0.66 3 1 C3.67441131 2.6635479 4.3400321 4.33066942 5 6 C7.02040748 8.27191416 7.02040748 8.27191416 9 10 C8.01 10 7.02 10 6 10 C0.4875 4.225 0.4875 4.225 0 0 Z " fill="#D9C643" transform="translate(248,234)"/>
<path d="M0 0 C1.65 0 3.3 0 5 0 C3.79618552 2.49361571 2.54571278 4.68143083 1 7 C0.34 7 -0.32 7 -1 7 C-0.67 4.69 -0.34 2.38 0 0 Z " fill="#16C9CB" transform="translate(222,119)"/>
<path d="M0 0 C0.33 0.66 0.66 1.32 1 2 C1.66 2 2.32 2 3 2 C3.66 3.65 4.32 5.3 5 7 C2.0280615 5.87548273 -0.33440687 4.77706209 -3 3 C-3 2.34 -3 1.68 -3 1 C-2.01 0.67 -1.02 0.34 0 0 Z " fill="#18B9B9" transform="translate(353,99)"/>
<path d="M0 0 C1.32 0 2.64 0 4 0 C4 0.66 4 1.32 4 2 C4.99 2.33 5.98 2.66 7 3 C7 3.33 7 3.66 7 4 C3.04 3.67 -0.92 3.34 -5 3 C-5 2.67 -5 2.34 -5 2 C-3.35 1.67 -1.7 1.34 0 1 C0 0.67 0 0.34 0 0 Z " fill="#10D3D0" transform="translate(317,85)"/>
<path d="M0 0 C5.61 0 11.22 0 17 0 C17 0.33 17 0.66 17 1 C14.03 1 11.06 1 8 1 C8 1.66 8 2.32 8 3 C5.36 2.67 2.72 2.34 0 2 C0 1.34 0 0.68 0 0 Z " fill="#05D2CD" transform="translate(300,41)"/>
<path d="M0 0 C0.33 0.99 0.66 1.98 1 3 C-0.125 4.5625 -0.125 4.5625 -2 6 C-5.1875 5.6875 -5.1875 5.6875 -8 5 C-8.33 3.68 -8.66 2.36 -9 1 C-7.515 1.99 -7.515 1.99 -6 3 C-3.03923709 2.64111965 -2.15341979 2.15341979 0 0 Z " fill="#8A3BDB" transform="translate(529,394)"/>
<path d="M0 0 C0.66 0 1.32 0 2 0 C3.85776765 3.13498292 4.20140476 5.37471432 4 9 C3.01 9.495 3.01 9.495 2 10 C2 8.35 2 6.7 2 5 C1.34 5 0.68 5 0 5 C0 3.35 0 1.7 0 0 Z " fill="#953AEA" transform="translate(144,357)"/>
<path d="M0 0 C1.0625 1.875 1.0625 1.875 2 4 C0.74458443 6.51083114 -0.50063488 6.87125446 -3 8 C-3 3.73173127 -2.62386487 3.06117568 0 0 Z " fill="#102022" transform="translate(417,273)"/>
<path d="M0 0 C1.32 1.65 2.64 3.3 4 5 C3.67 5.66 3.34 6.32 3 7 C1.35 6.67 -0.3 6.34 -2 6 C-2 4.68 -2 3.36 -2 2 C-1.34 2 -0.68 2 0 2 C0 1.34 0 0.68 0 0 Z " fill="#102122" transform="translate(176,262)"/>
<path d="M0 0 C0.99 0.33 1.98 0.66 3 1 C2.01 3.97 1.02 6.94 0 10 C-2 6 -2 6 -1.6875 3.875 C-1 2 -1 2 0 0 Z " fill="#25231A" transform="translate(246,207)"/>
<path d="M0 0 C2.71595986 3.1540179 3.96846241 4.87384964 5 9 C2.36 7.02 -0.28 5.04 -3 3 C-2.01 2.01 -1.02 1.02 0 0 Z " fill="#15BFBD" transform="translate(361,104)"/>
<path d="M0 0 C0.99 0.495 0.99 0.495 2 1 C2 1.66 2 2.32 2 3 C2.66 3 3.32 3 4 3 C4.33 5.97 4.66 8.94 5 12 C1.96079826 8.96079826 1.55734163 8.26589018 0.8125 4.3125 C0.65394531 3.50425781 0.49539063 2.69601562 0.33203125 1.86328125 C0.22246094 1.24839844 0.11289062 0.63351562 0 0 Z " fill="#8A33E4" transform="translate(418,413)"/>
<path d="M0 0 C0.66 0.33 1.32 0.66 2 1 C2.625 3.5625 2.625 3.5625 3 6 C1.02 6.99 1.02 6.99 -1 8 C-1.04241723 5.66705225 -1.04092937 3.33297433 -1 1 C-0.67 0.67 -0.34 0.34 0 0 Z " fill="#8F37E7" transform="translate(416,403)"/>
<path d="M0 0 C4.875 4.75 4.875 4.75 6 7 C4.68 7.99 3.36 8.98 2 10 C2 8.02 2 6.04 2 4 C1.34 4 0.68 4 0 4 C0 2.68 0 1.36 0 0 Z " fill="#873BCB" transform="translate(82,360)"/>
<path d="M0 0 C2.31 0.33 4.62 0.66 7 1 C7 2.32 7 3.64 7 5 C4.625 4.75 4.625 4.75 2 4 C0.6875 1.9375 0.6875 1.9375 0 0 Z " fill="#0FAEC2" transform="translate(246,354)"/>
<path d="M0 0 C0.66 0 1.32 0 2 0 C3.31626692 3.61973402 4 6.09567131 4 10 C3.34 10 2.68 10 2 10 C2 8.02 2 6.04 2 4 C1.01 3.67 0.02 3.34 -1 3 C-0.67 2.01 -0.34 1.02 0 0 Z " fill="#9A39EC" transform="translate(134,323)"/>
<path d="M0 0 C0.66 0 1.32 0 2 0 C2.33 1.65 2.66 3.3 3 5 C1.35 5.66 -0.3 6.32 -2 7 C-2 5.35 -2 3.7 -2 2 C-1.34 2 -0.68 2 0 2 C0 1.34 0 0.68 0 0 Z " fill="#9738E8" transform="translate(502,325)"/>
<path d="M0 0 C0.66 1.32 1.32 2.64 2 4 C0.1875 5.5625 0.1875 5.5625 -2 7 C-2.99 6.67 -3.98 6.34 -5 6 C-3.35 4.02 -1.7 2.04 0 0 Z " fill="#0F1C1F" transform="translate(407,287)"/>
<path d="M0 0 C0.33 0.66 0.66 1.32 1 2 C3.01669827 3.13350534 3.01669827 3.13350534 5 4 C4.67 5.32 4.34 6.64 4 8 C2.35 6.35 0.7 4.7 -1 3 C-0.67 2.01 -0.34 1.02 0 0 Z " fill="#262318" transform="translate(334,129)"/>
<path d="M0 0 C1.32 0.33 2.64 0.66 4 1 C2.8125 3 2.8125 3 1 5 C-1.6875 5.25 -1.6875 5.25 -4 5 C-2.68 3.35 -1.36 1.7 0 0 Z " fill="#15C3C2" transform="translate(204,73)"/>
<path d="M0 0 C0.33 0 0.66 0 1 0 C1 1.65 1 3.3 1 5 C0.01 5.33 -0.98 5.66 -2 6 C-2 6.66 -2 7.32 -2 8 C-2.99 7.67 -3.98 7.34 -5 7 C-4.19152271 5.83054208 -3.37810888 4.66449539 -2.5625 3.5 C-2.11003906 2.8503125 -1.65757812 2.200625 -1.19140625 1.53125 C-0.79824219 1.0259375 -0.40507813 0.520625 0 0 Z " fill="#160F21" transform="translate(519,432)"/>
<path d="M0 0 C0.33 0 0.66 0 1 0 C1.33 3.63 1.66 7.26 2 11 C-1 8 -1 8 -2 6 C-1.39421747 3.98072489 -0.73080266 1.97746603 0 0 Z " fill="#8B3ED0" transform="translate(455,354)"/>
<path d="M0 0 C2.96404505 2.80804268 5.44499019 5.18315774 7 9 C6.01 9 5.02 9 4 9 C4 8.01 4 7.02 4 6 C2.68 5.34 1.36 4.68 0 4 C0 2.68 0 1.36 0 0 Z " fill="#112828" transform="translate(372,119)"/>
<path d="M0 0 C0.99 0.99 1.98 1.98 3 3 C2.01 3.495 2.01 3.495 1 4 C1 4.99 1 5.98 1 7 C1.66 7 2.32 7 3 7 C2.67 7.99 2.34 8.98 2 10 C1.34 10 0.68 10 0 10 C0 6.7 0 3.4 0 0 Z " fill="#A812CE" transform="translate(71,545)"/>
<path d="M0 0 C1.231394 2.46278801 1.07159196 4.2795055 1 7 C0.01 7 -0.98 7 -2 7 C-2.33 6.34 -2.66 5.68 -3 5 C-1.5625 2.375 -1.5625 2.375 0 0 Z M1 4 C3 5 3 5 3 5 Z " fill="#8134CF" transform="translate(424,454)"/>
<path d="M0 0 C0.33 0 0.66 0 1 0 C1 2.64 1 5.28 1 8 C0.34 8 -0.32 8 -1 8 C-1.625 5.125 -1.625 5.125 -2 2 C-1.34 1.34 -0.68 0.68 0 0 Z " fill="#8D35EB" transform="translate(185,401)"/>
<path d="M0 0 C1.32 1.32 2.64 2.64 4 4 C2.35 5.65 0.7 7.3 -1 9 C-0.67 6.03 -0.34 3.06 0 0 Z " fill="#11A8BF" transform="translate(326,384)"/>
<path d="M0 0 C3.80666984 1.44390925 5.26602582 3.34952803 7 7 C6.67 7.66 6.34 8.32 6 9 C4.99712471 7.68969568 3.99777175 6.37669473 3 5.0625 C2.443125 4.33160156 1.88625 3.60070312 1.3125 2.84765625 C0 1 0 1 0 0 Z " fill="#17A7BE" transform="translate(266,380)"/>
<path d="M0 0 C0.928125 0.0825 1.85625 0.165 2.8125 0.25 C2.8125 0.58 2.8125 0.91 2.8125 1.25 C1.1625 1.58 -0.4875 1.91 -2.1875 2.25 C-1.8575 3.24 -1.5275 4.23 -1.1875 5.25 C-2.8375 4.92 -4.4875 4.59 -6.1875 4.25 C-4.36434338 1.00883268 -3.82500054 0.30000004 0 0 Z " fill="#7936BA" transform="translate(557.1875,372.75)"/>
<path d="M0 0 C0.66 0.33 1.32 0.66 2 1 C0.02 3.97 0.02 3.97 -2 7 C-2.99 6.67 -3.98 6.34 -5 6 C-3.35 4.02 -1.7 2.04 0 0 Z " fill="#853BC9" transform="translate(184,341)"/>
<path d="M0 0 C-3.20380017 2.13586678 -4.01939967 2.23132175 -7.6875 2.125 C-8.89986328 2.09792969 -8.89986328 2.09792969 -10.13671875 2.0703125 C-11.05904297 2.03550781 -11.05904297 2.03550781 -12 2 C-7.66032699 -0.21504143 -4.80574417 -1.54470348 0 0 Z " fill="#1DA9B1" transform="translate(325,283)"/>
<path d="M0 0 C0.66 0.99 1.32 1.98 2 3 C0.35 5.31 -1.3 7.62 -3 10 C-4 7 -4 7 -3.0625 4.8125 C-2.711875 4.214375 -2.36125 3.61625 -2 3 C-1.34 3 -0.68 3 0 3 C0 2.01 0 1.02 0 0 Z " fill="#17B7BF" transform="translate(418,267)"/>
<path d="M0 0 C1.32 0 2.64 0 4 0 C4.33 1.65 4.66 3.3 5 5 C3.68 5.33 2.36 5.66 1 6 C0.67 4.02 0.34 2.04 0 0 Z " fill="#FADD20" transform="translate(307,121)"/>
<path d="M0 0 C2.56616632 3.84924948 2.55097676 6.4349304 3 11 C1.5 10 1.5 10 0 8 C-0.27345479 5.28153765 -0.13491285 2.74322801 0 0 Z " fill="#34174B" transform="translate(122,502)"/>
<path d="M0 0 C4.75 0.75 4.75 0.75 7 3 C6.67 3.99 6.34 4.98 6 6 C5.34 5.67 4.68 5.34 4 5 C4 4.34 4 3.68 4 3 C2.68 2.34 1.36 1.68 0 1 C0 0.67 0 0.34 0 0 Z " fill="#9640E1" transform="translate(413,341)"/>
<path d="M0 0 C0.33 0.66 0.66 1.32 1 2 C-2 4 -2 4 -6 4 C-6.33 3.01 -6.66 2.02 -7 1 C-3.535 0.505 -3.535 0.505 0 0 Z " fill="#0AD2CF" transform="translate(267,44)"/>
<path d="M0 0 C5.75 1.75 5.75 1.75 8 4 C7.67 4.99 7.34 5.98 7 7 C5.83040013 6.02433888 4.66438823 5.044375 3.5 4.0625 C2.8503125 3.51722656 2.200625 2.97195313 1.53125 2.41015625 C1.0259375 1.94480469 0.520625 1.47945313 0 1 C0 0.67 0 0.34 0 0 Z " fill="#863DCF" transform="translate(63,412)"/>
<path d="M0 0 C1.875 0.3125 1.875 0.3125 4 1 C4.66 1.99 5.32 2.98 6 4 C5.67 4.99 5.34 5.98 5 7 C0 1.125 0 1.125 0 0 Z " fill="#853CC9" transform="translate(38,388)"/>
<path d="M0 0 C2.0625 0.4375 2.0625 0.4375 4 1 C2.71034824 2.37562854 1.37310707 3.70766393 0 5 C-0.66 5 -1.32 5 -2 5 C-1.125 1.125 -1.125 1.125 0 0 Z " fill="#8D39DA" transform="translate(549,377)"/>
<path d="M0 0 C3.34373475 0.55728913 6.03312999 1.35173889 9 3 C6.36 3 3.72 3 1 3 C0.67 2.01 0.34 1.02 0 0 Z " fill="#1A1126" transform="translate(157,377)"/>
<path d="M0 0 C0 0.66 0 1.32 0 2 C-2.64 2.66 -5.28 3.32 -8 4 C-7.67 3.01 -7.34 2.02 -7 1 C-4.53721199 -0.231394 -2.7204945 -0.07159196 0 0 Z " fill="#873DC6" transform="translate(46,373)"/>
<path d="M0 0 C0.66 0 1.32 0 2 0 C1.8125 1.875 1.8125 1.875 1 4 C-1.5625 5.25 -1.5625 5.25 -4 6 C-1.125 1.125 -1.125 1.125 0 0 Z " fill="#0F191B" transform="translate(355,355)"/>
<path d="M0 0 C0.99 0 1.98 0 3 0 C1.92598892 2.91517292 1.22189824 4.77810176 -1 7 C-1.04254356 5.00045254 -1.04080783 2.99958364 -1 1 C-0.67 0.67 -0.34 0.34 0 0 Z " fill="#8A3CD1" transform="translate(551,344)"/>
<path d="M0 0 C0.66 0 1.32 0 2 0 C0.125 5.75 0.125 5.75 -1 8 C-1.66 8 -2.32 8 -3 8 C-1.125 2.25 -1.125 2.25 0 0 Z " fill="#190F26" transform="translate(516,342)"/>
<path d="M0 0 C2.29633824 3.44450737 2.54016485 5.93812283 3 10 C2.67 9.34 2.34 8.68 2 8 C1.34 8 0.68 8 0 8 C0 5.36 0 2.72 0 0 Z " fill="#7B3BB6" transform="translate(134,315)"/>
<path d="M0 0 C3.63 0 7.26 0 11 0 C11.33 1.32 11.66 2.64 12 4 C11.01 3.34 10.02 2.68 9 2 C6.72087062 1.54605448 6.72087062 1.54605448 4.3125 1.375 C3.50425781 1.30023438 2.69601562 1.22546875 1.86328125 1.1484375 C1.24839844 1.09945313 0.63351562 1.05046875 0 1 C0 0.67 0 0.34 0 0 Z " fill="#2E1745" transform="translate(480,287)"/>
<path d="M0 0 C1.33332095 2.6666419 0.67102033 4.16680303 0 7 C-1.32 7 -2.64 7 -4 7 C-2.79618552 4.50638429 -1.54571278 2.31856917 0 0 Z " fill="#122427" transform="translate(412,280)"/>
</svg>
