<svg xmlns="http://www.w3.org/2000/svg" viewBox="0 0 1024 1024" role="img" aria-labelledby="title desc">
  <title id="title">Choon logo</title>
  <desc id="desc">A cyan map pin with a music note above purple raised hands and the word choon in white.</desc>
  <defs>
    <linearGradient id="bg" x1="0" y1="0" x2="1" y2="1">
      <stop offset="0%" stop-color="#05060b"/>
      <stop offset="100%" stop-color="#0a0c16"/>
    </linearGradient>
    <linearGradient id="pin" x1="0" y1="0" x2="1" y2="1">
      <stop offset="0%" stop-color="#34e6ef"/>
      <stop offset="100%" stop-color="#18b8cf"/>
    </linearGradient>
    <linearGradient id="crowd" x1="0" y1="0" x2="1" y2="1">
      <stop offset="0%" stop-color="#7c3aed"/>
      <stop offset="100%" stop-color="#d946ef"/>
    </linearGradient>
  </defs>

  <rect width="1024" height="1024" fill="url(#bg)"/>

  <path fill="url(#pin)" d="M512 126c-123 0-223 100-223 223 0 66 30 128 81 171l128 170a18 18 0 0 0 28 0l128-170a223 223 0 0 0 81-171c0-123-100-223-223-223Zm0 124c55 0 99 44 99 99s-44 99-99 99-99-44-99-99 44-99 99-99Z"/>
  <circle cx="512" cy="349" r="92" fill="#080a12"/>
  <path fill="#f7df1e" d="M496 292v84c-8-6-18-9-30-9-29 0-53 20-53 45s24 45 53 45 53-20 53-45v-96c20 2 37 18 37 38a12 12 0 1 0 24 0c0-38-31-69-70-69h-14Z"/>

  <g fill="url(#crowd)">
    <path d="M219 628h86l40-114c8-22 39-24 50-3l17 33a18 18 0 0 0 33-4l25-84a26 26 0 0 0-49-16l-13 44-4-8c-21-41-79-36-93 8l-50 144h-42a16 16 0 1 0 0 32Z"/>
    <rect x="198" y="716" width="628" height="30" rx="12"/>
    <path d="M805 628h-86l-40-114c-8-22-39-24-50-3l-17 33a18 18 0 0 1-33-4l-25-84a26 26 0 0 1 49-16l13 44 4-8c21-41 79-36 93 8l50 144h42a16 16 0 1 1 0 32Z"/>
  </g>

  <text x="512" y="900" fill="#ffffff" text-anchor="middle" font-family="Inter, ui-sans-serif, system-ui, -apple-system, Segoe UI, Roboto, Helvetica, Arial, sans-serif" font-size="172" font-weight="700" letter-spacing="1">choon</text>
</svg>
